G04 #@! TF.FileFunction,Legend,Top*
%FSLAX46Y46*%
G04 Gerber Fmt 4.6, Leading zero omitted, Abs format (unit mm)*
G04 Created by KiCad (PCBNEW 0.201509111501+6183~30~ubuntu14.04.1-product) date Wed 16 Sep 2015 08:53:59 PM CDT*
%MOMM*%
G01*
G04 APERTURE LIST*
%ADD10C,0.100000*%
%ADD11C,0.300000*%
%ADD12C,0.150000*%
G04 APERTURE END LIST*
D10*
D11*
X95948572Y-105517143D02*
X97091429Y-105517143D01*
X96520000Y-106088571D02*
X96520000Y-104945714D01*
X95948572Y-102977143D02*
X97091429Y-102977143D01*
X96461429Y-97268571D02*
X96461429Y-95768571D01*
X97318572Y-97268571D02*
X96675715Y-96411429D01*
X97318572Y-95768571D02*
X96461429Y-96625714D01*
X97961429Y-97268571D02*
X97961429Y-96268571D01*
X97961429Y-95768571D02*
X97890000Y-95840000D01*
X97961429Y-95911429D01*
X98032857Y-95840000D01*
X97961429Y-95768571D01*
X97961429Y-95911429D01*
X99532858Y-97125714D02*
X99461429Y-97197143D01*
X99247143Y-97268571D01*
X99104286Y-97268571D01*
X98890001Y-97197143D01*
X98747143Y-97054286D01*
X98675715Y-96911429D01*
X98604286Y-96625714D01*
X98604286Y-96411429D01*
X98675715Y-96125714D01*
X98747143Y-95982857D01*
X98890001Y-95840000D01*
X99104286Y-95768571D01*
X99247143Y-95768571D01*
X99461429Y-95840000D01*
X99532858Y-95911429D01*
X100818572Y-97268571D02*
X100818572Y-96482857D01*
X100747143Y-96340000D01*
X100604286Y-96268571D01*
X100318572Y-96268571D01*
X100175715Y-96340000D01*
X100818572Y-97197143D02*
X100675715Y-97268571D01*
X100318572Y-97268571D01*
X100175715Y-97197143D01*
X100104286Y-97054286D01*
X100104286Y-96911429D01*
X100175715Y-96768571D01*
X100318572Y-96697143D01*
X100675715Y-96697143D01*
X100818572Y-96625714D01*
X102175715Y-97268571D02*
X102175715Y-95768571D01*
X102175715Y-97197143D02*
X102032858Y-97268571D01*
X101747144Y-97268571D01*
X101604286Y-97197143D01*
X101532858Y-97125714D01*
X101461429Y-96982857D01*
X101461429Y-96554286D01*
X101532858Y-96411429D01*
X101604286Y-96340000D01*
X101747144Y-96268571D01*
X102032858Y-96268571D01*
X102175715Y-96340000D01*
X103818572Y-95768571D02*
X104675715Y-95768571D01*
X104247144Y-97268571D02*
X104247144Y-95768571D01*
X105818572Y-96268571D02*
X105818572Y-97268571D01*
X105175715Y-96268571D02*
X105175715Y-97054286D01*
X105247143Y-97197143D01*
X105390001Y-97268571D01*
X105604286Y-97268571D01*
X105747143Y-97197143D01*
X105818572Y-97125714D01*
X106318572Y-96268571D02*
X106890001Y-96268571D01*
X106532858Y-95768571D02*
X106532858Y-97054286D01*
X106604286Y-97197143D01*
X106747144Y-97268571D01*
X106890001Y-97268571D01*
X107604287Y-97268571D02*
X107461429Y-97197143D01*
X107390001Y-97125714D01*
X107318572Y-96982857D01*
X107318572Y-96554286D01*
X107390001Y-96411429D01*
X107461429Y-96340000D01*
X107604287Y-96268571D01*
X107818572Y-96268571D01*
X107961429Y-96340000D01*
X108032858Y-96411429D01*
X108104287Y-96554286D01*
X108104287Y-96982857D01*
X108032858Y-97125714D01*
X107961429Y-97197143D01*
X107818572Y-97268571D01*
X107604287Y-97268571D01*
X108747144Y-97268571D02*
X108747144Y-96268571D01*
X108747144Y-96554286D02*
X108818572Y-96411429D01*
X108890001Y-96340000D01*
X109032858Y-96268571D01*
X109175715Y-96268571D01*
X109675715Y-97268571D02*
X109675715Y-96268571D01*
X109675715Y-95768571D02*
X109604286Y-95840000D01*
X109675715Y-95911429D01*
X109747143Y-95840000D01*
X109675715Y-95768571D01*
X109675715Y-95911429D01*
X111032858Y-97268571D02*
X111032858Y-96482857D01*
X110961429Y-96340000D01*
X110818572Y-96268571D01*
X110532858Y-96268571D01*
X110390001Y-96340000D01*
X111032858Y-97197143D02*
X110890001Y-97268571D01*
X110532858Y-97268571D01*
X110390001Y-97197143D01*
X110318572Y-97054286D01*
X110318572Y-96911429D01*
X110390001Y-96768571D01*
X110532858Y-96697143D01*
X110890001Y-96697143D01*
X111032858Y-96625714D01*
X111961430Y-97268571D02*
X111818572Y-97197143D01*
X111747144Y-97054286D01*
X111747144Y-95768571D01*
X97175715Y-99668571D02*
X96461429Y-99668571D01*
X96461429Y-98168571D01*
X97675715Y-98882857D02*
X98175715Y-98882857D01*
X98390001Y-99668571D02*
X97675715Y-99668571D01*
X97675715Y-98168571D01*
X98390001Y-98168571D01*
X99032858Y-99668571D02*
X99032858Y-98168571D01*
X99390001Y-98168571D01*
X99604286Y-98240000D01*
X99747144Y-98382857D01*
X99818572Y-98525714D01*
X99890001Y-98811429D01*
X99890001Y-99025714D01*
X99818572Y-99311429D01*
X99747144Y-99454286D01*
X99604286Y-99597143D01*
X99390001Y-99668571D01*
X99032858Y-99668571D01*
X101961429Y-98168571D02*
X102247143Y-98168571D01*
X102390001Y-98240000D01*
X102532858Y-98382857D01*
X102604286Y-98668571D01*
X102604286Y-99168571D01*
X102532858Y-99454286D01*
X102390001Y-99597143D01*
X102247143Y-99668571D01*
X101961429Y-99668571D01*
X101818572Y-99597143D01*
X101675715Y-99454286D01*
X101604286Y-99168571D01*
X101604286Y-98668571D01*
X101675715Y-98382857D01*
X101818572Y-98240000D01*
X101961429Y-98168571D01*
X103175715Y-99597143D02*
X103318572Y-99668571D01*
X103604287Y-99668571D01*
X103747144Y-99597143D01*
X103818572Y-99454286D01*
X103818572Y-99382857D01*
X103747144Y-99240000D01*
X103604287Y-99168571D01*
X103390001Y-99168571D01*
X103247144Y-99097143D01*
X103175715Y-98954286D01*
X103175715Y-98882857D01*
X103247144Y-98740000D01*
X103390001Y-98668571D01*
X103604287Y-98668571D01*
X103747144Y-98740000D01*
X105104287Y-99597143D02*
X104961430Y-99668571D01*
X104675716Y-99668571D01*
X104532858Y-99597143D01*
X104461430Y-99525714D01*
X104390001Y-99382857D01*
X104390001Y-98954286D01*
X104461430Y-98811429D01*
X104532858Y-98740000D01*
X104675716Y-98668571D01*
X104961430Y-98668571D01*
X105104287Y-98740000D01*
X105747144Y-99668571D02*
X105747144Y-98668571D01*
X105747144Y-98168571D02*
X105675715Y-98240000D01*
X105747144Y-98311429D01*
X105818572Y-98240000D01*
X105747144Y-98168571D01*
X105747144Y-98311429D01*
X106675716Y-99668571D02*
X106532858Y-99597143D01*
X106461430Y-99454286D01*
X106461430Y-98168571D01*
X107461430Y-99668571D02*
X107318572Y-99597143D01*
X107247144Y-99454286D01*
X107247144Y-98168571D01*
X108675715Y-99668571D02*
X108675715Y-98882857D01*
X108604286Y-98740000D01*
X108461429Y-98668571D01*
X108175715Y-98668571D01*
X108032858Y-98740000D01*
X108675715Y-99597143D02*
X108532858Y-99668571D01*
X108175715Y-99668571D01*
X108032858Y-99597143D01*
X107961429Y-99454286D01*
X107961429Y-99311429D01*
X108032858Y-99168571D01*
X108175715Y-99097143D01*
X108532858Y-99097143D01*
X108675715Y-99025714D01*
X109175715Y-98668571D02*
X109747144Y-98668571D01*
X109390001Y-98168571D02*
X109390001Y-99454286D01*
X109461429Y-99597143D01*
X109604287Y-99668571D01*
X109747144Y-99668571D01*
X110461430Y-99668571D02*
X110318572Y-99597143D01*
X110247144Y-99525714D01*
X110175715Y-99382857D01*
X110175715Y-98954286D01*
X110247144Y-98811429D01*
X110318572Y-98740000D01*
X110461430Y-98668571D01*
X110675715Y-98668571D01*
X110818572Y-98740000D01*
X110890001Y-98811429D01*
X110961430Y-98954286D01*
X110961430Y-99382857D01*
X110890001Y-99525714D01*
X110818572Y-99597143D01*
X110675715Y-99668571D01*
X110461430Y-99668571D01*
X111604287Y-99668571D02*
X111604287Y-98668571D01*
X111604287Y-98954286D02*
X111675715Y-98811429D01*
X111747144Y-98740000D01*
X111890001Y-98668571D01*
X112032858Y-98668571D01*
D10*
X161290000Y-93980000D02*
X93980000Y-93980000D01*
X161290000Y-118110000D02*
X161290000Y-93980000D01*
X93980000Y-118110000D02*
X161290000Y-118110000D01*
X93980000Y-93980000D02*
X93980000Y-118110000D01*
D12*
X139720000Y-99350000D02*
X147220000Y-99350000D01*
X147220000Y-99350000D02*
X147220000Y-103850000D01*
X147220000Y-103850000D02*
X139720000Y-103850000D01*
X139720000Y-103850000D02*
X139720000Y-99350000D01*
X143260000Y-107970000D02*
X146260000Y-107970000D01*
X146260000Y-110470000D02*
X143260000Y-110470000D01*
X154896000Y-103941000D02*
X155096000Y-103941000D01*
X157490000Y-103941000D02*
X157310000Y-103941000D01*
X157179643Y-107168744D02*
G75*
G03X157496000Y-103941000I-1003643J1727744D01*
G01*
X157309068Y-106493006D02*
G75*
G03X157310000Y-104390000I-1133068J1052006D01*
G01*
X154869274Y-103953780D02*
G75*
G03X155216000Y-107191000I1306726J-1497220D01*
G01*
X155096747Y-104427111D02*
G75*
G03X155116000Y-106475000I1079253J-1013889D01*
G01*
X99060000Y-104140000D02*
X99060000Y-101600000D01*
X98780000Y-106960000D02*
X98780000Y-105410000D01*
X99060000Y-104140000D02*
X101600000Y-104140000D01*
X101880000Y-105410000D02*
X101880000Y-106960000D01*
X101880000Y-106960000D02*
X98780000Y-106960000D01*
X101600000Y-104140000D02*
X101600000Y-101600000D01*
X101600000Y-101600000D02*
X99060000Y-101600000D01*
X111760000Y-102870000D02*
X116840000Y-102870000D01*
X116840000Y-102870000D02*
X116840000Y-105410000D01*
X116840000Y-105410000D02*
X111760000Y-105410000D01*
X111760000Y-105410000D02*
X111760000Y-102870000D01*
X111760000Y-104140000D02*
X110490000Y-104140000D01*
X116840000Y-104140000D02*
X118110000Y-104140000D01*
X116840000Y-113030000D02*
X111760000Y-113030000D01*
X111760000Y-113030000D02*
X111760000Y-110490000D01*
X111760000Y-110490000D02*
X116840000Y-110490000D01*
X116840000Y-110490000D02*
X116840000Y-113030000D01*
X116840000Y-111760000D02*
X118110000Y-111760000D01*
X111760000Y-111760000D02*
X110490000Y-111760000D01*
X125865000Y-99305000D02*
X125865000Y-100575000D01*
X133215000Y-99305000D02*
X133215000Y-100575000D01*
X133215000Y-111515000D02*
X133215000Y-110245000D01*
X125865000Y-111515000D02*
X125865000Y-110245000D01*
X125865000Y-99305000D02*
X133215000Y-99305000D01*
X125865000Y-111515000D02*
X133215000Y-111515000D01*
X125865000Y-100575000D02*
X124930000Y-100575000D01*
X143303334Y-98457143D02*
X143255715Y-98504762D01*
X143112858Y-98552381D01*
X143017620Y-98552381D01*
X142874762Y-98504762D01*
X142779524Y-98409524D01*
X142731905Y-98314286D01*
X142684286Y-98123810D01*
X142684286Y-97980952D01*
X142731905Y-97790476D01*
X142779524Y-97695238D01*
X142874762Y-97600000D01*
X143017620Y-97552381D01*
X143112858Y-97552381D01*
X143255715Y-97600000D01*
X143303334Y-97647619D01*
X144255715Y-98552381D02*
X143684286Y-98552381D01*
X143970000Y-98552381D02*
X143970000Y-97552381D01*
X143874762Y-97695238D01*
X143779524Y-97790476D01*
X143684286Y-97838095D01*
X144593334Y-107077143D02*
X144545715Y-107124762D01*
X144402858Y-107172381D01*
X144307620Y-107172381D01*
X144164762Y-107124762D01*
X144069524Y-107029524D01*
X144021905Y-106934286D01*
X143974286Y-106743810D01*
X143974286Y-106600952D01*
X144021905Y-106410476D01*
X144069524Y-106315238D01*
X144164762Y-106220000D01*
X144307620Y-106172381D01*
X144402858Y-106172381D01*
X144545715Y-106220000D01*
X144593334Y-106267619D01*
X144974286Y-106267619D02*
X145021905Y-106220000D01*
X145117143Y-106172381D01*
X145355239Y-106172381D01*
X145450477Y-106220000D01*
X145498096Y-106267619D01*
X145545715Y-106362857D01*
X145545715Y-106458095D01*
X145498096Y-106600952D01*
X144926667Y-107172381D01*
X145545715Y-107172381D01*
X153602381Y-106788095D02*
X152602381Y-106788095D01*
X152602381Y-106550000D01*
X152650000Y-106407142D01*
X152745238Y-106311904D01*
X152840476Y-106264285D01*
X153030952Y-106216666D01*
X153173810Y-106216666D01*
X153364286Y-106264285D01*
X153459524Y-106311904D01*
X153554762Y-106407142D01*
X153602381Y-106550000D01*
X153602381Y-106788095D01*
X153602381Y-105264285D02*
X153602381Y-105835714D01*
X153602381Y-105550000D02*
X152602381Y-105550000D01*
X152745238Y-105645238D01*
X152840476Y-105740476D01*
X152888095Y-105835714D01*
X154922381Y-102711905D02*
X153922381Y-102711905D01*
X154922381Y-102140476D02*
X154350952Y-102569048D01*
X153922381Y-102140476D02*
X154493810Y-102711905D01*
X99591905Y-110962381D02*
X99591905Y-109962381D01*
X99972858Y-109962381D01*
X100068096Y-110010000D01*
X100115715Y-110057619D01*
X100163334Y-110152857D01*
X100163334Y-110295714D01*
X100115715Y-110390952D01*
X100068096Y-110438571D01*
X99972858Y-110486190D01*
X99591905Y-110486190D01*
X101115715Y-110962381D02*
X100544286Y-110962381D01*
X100830000Y-110962381D02*
X100830000Y-109962381D01*
X100734762Y-110105238D01*
X100639524Y-110200476D01*
X100544286Y-110248095D01*
X114382254Y-101092261D02*
X114048920Y-100616070D01*
X113810825Y-101092261D02*
X113810825Y-100092261D01*
X114191778Y-100092261D01*
X114287016Y-100139880D01*
X114334635Y-100187499D01*
X114382254Y-100282737D01*
X114382254Y-100425594D01*
X114334635Y-100520832D01*
X114287016Y-100568451D01*
X114191778Y-100616070D01*
X113810825Y-100616070D01*
X115334635Y-101092261D02*
X114763206Y-101092261D01*
X115048920Y-101092261D02*
X115048920Y-100092261D01*
X114953682Y-100235118D01*
X114858444Y-100330356D01*
X114763206Y-100377975D01*
X113884414Y-115712501D02*
X113551080Y-115236310D01*
X113312985Y-115712501D02*
X113312985Y-114712501D01*
X113693938Y-114712501D01*
X113789176Y-114760120D01*
X113836795Y-114807739D01*
X113884414Y-114902977D01*
X113884414Y-115045834D01*
X113836795Y-115141072D01*
X113789176Y-115188691D01*
X113693938Y-115236310D01*
X113312985Y-115236310D01*
X114265366Y-114807739D02*
X114312985Y-114760120D01*
X114408223Y-114712501D01*
X114646319Y-114712501D01*
X114741557Y-114760120D01*
X114789176Y-114807739D01*
X114836795Y-114902977D01*
X114836795Y-114998215D01*
X114789176Y-115141072D01*
X114217747Y-115712501D01*
X114836795Y-115712501D01*
X124968095Y-95832381D02*
X124968095Y-96641905D01*
X125015714Y-96737143D01*
X125063333Y-96784762D01*
X125158571Y-96832381D01*
X125349048Y-96832381D01*
X125444286Y-96784762D01*
X125491905Y-96737143D01*
X125539524Y-96641905D01*
X125539524Y-95832381D01*
X126539524Y-96832381D02*
X125968095Y-96832381D01*
X126253809Y-96832381D02*
X126253809Y-95832381D01*
X126158571Y-95975238D01*
X126063333Y-96070476D01*
X125968095Y-96118095D01*
M02*
