M48
;DRILL file {KiCad 0.201509111501+6183~30~ubuntu14.04.1-product} date Wed 16 Sep 2015 08:54:19 PM CDT
;FORMAT={-:-/ absolute / inch / decimal}
FMAT,2
INCH,TZ
T1C0.031
T2C0.032
T3C0.035
T4C0.039
T5C0.040
%
G90
G05
M72
T1
X4.95Y-4.
X4.95Y-4.1
X4.95Y-4.2
X4.95Y-4.3
X5.25Y-4.
X5.25Y-4.1
X5.25Y-4.2
X5.25Y-4.3
X5.65Y-4.3
T2
X5.7484Y-4.3
T3
X5.55Y-4.
X5.7469Y-4.
T4
X4.3Y-4.1
X4.3Y-4.4
X4.7Y-4.1
X4.7Y-4.4
X6.15Y-4.1
X6.15Y-4.2
T5
X3.95Y-4.05
X3.95Y-4.15
T0
M30
