M48
;DRILL file {KiCad 0.201509221857+6208~30~ubuntu14.04.1-product} date Fri 20 Nov 2015 04:08:05 PM CST
;FORMAT={-:-/ absolute / inch / decimal}
FMAT,2
INCH,TZ
T1C0.016
T2C0.031
T3C0.032
T4C0.039
T5C0.040
T6C0.045
T7C0.049
T8C0.050
%
G90
G05
M72
T1
X4.85Y-4.25
X4.9Y-4.3
X5.05Y-4.6
X5.2Y-3.8
X5.2Y-3.9
T2
X6.3Y-3.9
X6.3Y-4.5
X6.4Y-3.9
X6.4Y-4.5
X6.5Y-3.9
X6.5Y-4.5
X6.6Y-3.9
X6.6Y-4.5
X6.7Y-3.9
X6.7Y-4.5
X6.8Y-3.9
X6.8Y-4.5
X6.9Y-3.9
X6.9Y-4.5
X7.Y-3.9
X7.Y-4.5
X7.1Y-3.9
X7.1Y-4.5
X7.2Y-3.9
X7.2Y-4.5
X7.3Y-3.9
X7.3Y-4.5
X7.4Y-3.9
X7.4Y-4.5
X7.5Y-3.9
X7.5Y-4.5
X7.6Y-3.9
X7.6Y-4.5
T3
X5.25Y-4.4
X5.25Y-4.58
X5.5Y-4.4
X5.5Y-4.58
T4
X4.65Y-3.5999
X5.3Y-3.5999
X5.7Y-4.35
X5.7Y-4.6
X6.1Y-4.35
X6.1Y-4.6
X6.45Y-3.5
X6.45Y-3.65
X6.85Y-3.5
X6.85Y-3.65
X7.1Y-3.6
X7.2Y-3.6
X7.4Y-3.6
X7.5Y-3.6
T5
X5.9Y-3.6
X6.Y-3.6
X6.1Y-3.6
X6.2Y-3.6
T6
X5.05Y-3.9
X5.05Y-4.
X5.05Y-4.1
X5.45Y-3.9
X5.45Y-4.
X5.45Y-4.1
X5.85Y-3.9
X5.85Y-4.
X5.85Y-4.1
T7
X4.35Y-4.95
X4.55Y-4.95
X4.75Y-4.95
X4.95Y-4.95
X5.15Y-4.95
X5.35Y-4.95
X5.55Y-4.95
X5.75Y-4.95
X5.95Y-4.95
X6.15Y-4.95
X6.35Y-4.95
X6.55Y-4.95
X6.75Y-4.95
X6.95Y-4.95
X7.15Y-4.95
X7.35Y-4.95
X7.55Y-4.95
T8
X5.05Y-3.5999
X5.7Y-3.5999
T5
X4.35Y-4.43G85X4.35Y-4.47
G05
X4.4079Y-3.8609G85X4.4079Y-3.939
G05
X4.45Y-4.43G85X4.45Y-4.47
G05
X4.487Y-4.085G85X4.5651Y-4.085
G05
X4.55Y-4.43G85X4.55Y-4.47
G05
X4.6441Y-3.8609G85X4.6441Y-3.939
G05
X4.85Y-4.43G85X4.85Y-4.47
G05
X4.95Y-4.43G85X4.95Y-4.47
G05
X5.05Y-4.43G85X5.05Y-4.47
G05
T0
M30
