G04 #@! TF.FileFunction,Copper,L1,Top,Signal*
%FSLAX46Y46*%
G04 Gerber Fmt 4.6, Leading zero omitted, Abs format (unit mm)*
G04 Created by KiCad (PCBNEW 0.201509221857+6208~30~ubuntu14.04.1-product) date Fri 20 Nov 2015 04:08:02 PM CST*
%MOMM*%
G01*
G04 APERTURE LIST*
%ADD10C,0.100000*%
%ADD11C,1.397000*%
%ADD12O,2.032000X3.048000*%
%ADD13O,2.540000X2.032000*%
%ADD14C,1.900000*%
%ADD15C,1.998980*%
%ADD16R,2.999740X2.999740*%
%ADD17C,2.999740*%
%ADD18R,1.727200X2.032000*%
%ADD19O,1.727200X2.032000*%
%ADD20R,1.998980X1.998980*%
%ADD21R,2.000000X2.000000*%
%ADD22C,2.000000*%
%ADD23R,3.500120X3.500120*%
%ADD24C,0.508000*%
%ADD25C,1.016000*%
%ADD26C,0.508000*%
%ADD27C,0.254000*%
G04 APERTURE END LIST*
D10*
D11*
X139700000Y-111760000D03*
X133350000Y-111760000D03*
X139700000Y-116332000D03*
X133350000Y-116332000D03*
D12*
X123190000Y-113030000D03*
X125730000Y-113030000D03*
X128270000Y-113030000D03*
X110490000Y-113030000D03*
X113030000Y-113030000D03*
X115570000Y-113030000D03*
D13*
X128270000Y-101600000D03*
X128270000Y-104140000D03*
X128270000Y-99060000D03*
D14*
X190500000Y-99060000D03*
X187960000Y-99060000D03*
X185420000Y-99060000D03*
X182880000Y-99060000D03*
X180340000Y-99060000D03*
X177800000Y-99060000D03*
X175260000Y-99060000D03*
X172720000Y-99060000D03*
X170180000Y-99060000D03*
X167640000Y-99060000D03*
X165100000Y-99060000D03*
X162560000Y-99060000D03*
X160020000Y-99060000D03*
X160020000Y-114300000D03*
X162560000Y-114300000D03*
X165100000Y-114300000D03*
X167640000Y-114300000D03*
X170180000Y-114300000D03*
X172720000Y-114300000D03*
X175260000Y-114300000D03*
X177800000Y-114300000D03*
X180340000Y-114300000D03*
X182880000Y-114300000D03*
X185420000Y-114300000D03*
X187960000Y-114300000D03*
X190500000Y-114300000D03*
X193040000Y-114300000D03*
X193040000Y-99060000D03*
D15*
X144780000Y-110490000D03*
X154940000Y-110490000D03*
X173990000Y-92710000D03*
X163830000Y-92710000D03*
X173990000Y-88900000D03*
X163830000Y-88900000D03*
X144780000Y-116840000D03*
X154940000Y-116840000D03*
D16*
X110490000Y-125730000D03*
D17*
X115570000Y-125730000D03*
X120650000Y-125730000D03*
X125730000Y-125730000D03*
X130810000Y-125730000D03*
X135890000Y-125730000D03*
X140970000Y-125730000D03*
X146050000Y-125730000D03*
X151130000Y-125730000D03*
X156210000Y-125730000D03*
X161290000Y-125730000D03*
X166370000Y-125730000D03*
X171450000Y-125730000D03*
X176530000Y-125730000D03*
X181610000Y-125730000D03*
X186690000Y-125730000D03*
X191770000Y-125730000D03*
D18*
X157480000Y-91440000D03*
D19*
X154940000Y-91440000D03*
X152400000Y-91440000D03*
X149860000Y-91440000D03*
D15*
X144780000Y-91437460D03*
D20*
X134620000Y-91437460D03*
D21*
X190500000Y-91440000D03*
D22*
X187960000Y-91440000D03*
D21*
X182880000Y-91440000D03*
D22*
X180340000Y-91440000D03*
D15*
X128270000Y-91437460D03*
D20*
X118110000Y-91437460D03*
D23*
X117960140Y-99060000D03*
X111960660Y-99060000D03*
X114960400Y-103759000D03*
D13*
X138430000Y-101600000D03*
X138430000Y-104140000D03*
X138430000Y-99060000D03*
X148590000Y-101600000D03*
X148590000Y-104140000D03*
X148590000Y-99060000D03*
D24*
X128270000Y-116840000D03*
X123190000Y-107950000D03*
X132080000Y-99060000D03*
X124460000Y-109220000D03*
X132080000Y-96520000D03*
D25*
X119380000Y-119380000D02*
X120650000Y-120650000D01*
X119380000Y-119380000D02*
X120650000Y-118110000D01*
X118110000Y-119380000D02*
X119380000Y-119380000D01*
X110490000Y-125730000D02*
X110490000Y-121920000D01*
X113030000Y-119380000D02*
X118110000Y-119380000D01*
X110490000Y-121920000D02*
X113030000Y-119380000D01*
X117960140Y-99060000D02*
X118110000Y-99060000D01*
X118110000Y-99060000D02*
X120650000Y-101600000D01*
X120650000Y-116840000D02*
X120650000Y-118110000D01*
X120650000Y-101600000D02*
X120650000Y-116840000D01*
X120650000Y-118110000D02*
X120650000Y-120650000D01*
X120650000Y-120650000D02*
X120650000Y-125730000D01*
X128270000Y-99060000D02*
X128270000Y-97787460D01*
X128270000Y-97787460D02*
X134620000Y-91437460D01*
X117960140Y-99060000D02*
X128270000Y-99060000D01*
X117960140Y-99060000D02*
X117960140Y-91587320D01*
X117960140Y-91587320D02*
X118110000Y-91437460D01*
D26*
X135890000Y-125730000D02*
X135890000Y-124460000D01*
X135890000Y-124460000D02*
X128270000Y-116840000D01*
X128270000Y-101600000D02*
X127000000Y-101600000D01*
X123190000Y-105410000D02*
X123190000Y-107950000D01*
X127000000Y-101600000D02*
X123190000Y-105410000D01*
X128270000Y-101600000D02*
X130810000Y-101600000D01*
X132080000Y-100330000D02*
X132080000Y-99060000D01*
X130810000Y-101600000D02*
X132080000Y-100330000D01*
X135890000Y-105410000D02*
X135890000Y-102870000D01*
X133350000Y-107950000D02*
X135890000Y-105410000D01*
X125730000Y-107950000D02*
X133350000Y-107950000D01*
X124460000Y-109220000D02*
X125730000Y-107950000D01*
X135890000Y-100330000D02*
X135890000Y-102870000D01*
X132080000Y-96520000D02*
X135890000Y-100330000D01*
X135890000Y-100330000D02*
X137160000Y-101600000D01*
X138430000Y-101600000D02*
X137160000Y-101600000D01*
X137160000Y-101600000D02*
X135890000Y-102870000D01*
X128270000Y-113030000D02*
X130810000Y-110490000D01*
X144780000Y-105410000D02*
X144780000Y-102870000D01*
X140970000Y-109220000D02*
X144780000Y-105410000D01*
X132080000Y-109220000D02*
X140970000Y-109220000D01*
X130810000Y-110490000D02*
X132080000Y-109220000D01*
X146050000Y-101600000D02*
X148590000Y-101600000D01*
X144780000Y-100330000D02*
X144780000Y-102870000D01*
X144780000Y-100330000D02*
X146050000Y-101600000D01*
X144780000Y-102870000D02*
X146050000Y-101600000D01*
X144780000Y-91437460D02*
X144780000Y-100330000D01*
X152400000Y-91440000D02*
X152400000Y-92710000D01*
X167640000Y-97790000D02*
X167640000Y-99060000D01*
X166370000Y-96520000D02*
X167640000Y-97790000D01*
X165100000Y-96520000D02*
X166370000Y-96520000D01*
X162560000Y-93980000D02*
X165100000Y-96520000D01*
X153670000Y-93980000D02*
X162560000Y-93980000D01*
X152400000Y-92710000D02*
X153670000Y-93980000D01*
X149860000Y-91440000D02*
X149860000Y-92710000D01*
X162560000Y-96520000D02*
X165100000Y-99060000D01*
X153670000Y-96520000D02*
X162560000Y-96520000D01*
X149860000Y-92710000D02*
X153670000Y-96520000D01*
X140970000Y-125730000D02*
X140970000Y-123190000D01*
X171450000Y-105410000D02*
X177800000Y-99060000D01*
X166370000Y-105410000D02*
X171450000Y-105410000D01*
X158750000Y-113030000D02*
X166370000Y-105410000D01*
X153670000Y-113030000D02*
X158750000Y-113030000D01*
X146050000Y-120650000D02*
X153670000Y-113030000D01*
X143510000Y-120650000D02*
X146050000Y-120650000D01*
X140970000Y-123190000D02*
X143510000Y-120650000D01*
X162560000Y-114300000D02*
X162560000Y-115570000D01*
X156210000Y-121920000D02*
X156210000Y-125730000D01*
X162560000Y-115570000D02*
X156210000Y-121920000D01*
X165100000Y-114300000D02*
X165100000Y-115570000D01*
X171450000Y-121920000D02*
X171450000Y-125730000D01*
X165100000Y-115570000D02*
X171450000Y-121920000D01*
X172720000Y-114300000D02*
X172720000Y-116840000D01*
X186690000Y-123190000D02*
X186690000Y-125730000D01*
X184150000Y-120650000D02*
X186690000Y-123190000D01*
X176530000Y-120650000D02*
X184150000Y-120650000D01*
X172720000Y-116840000D02*
X176530000Y-120650000D01*
X175260000Y-114300000D02*
X175260000Y-116840000D01*
X191770000Y-121920000D02*
X191770000Y-125730000D01*
X189230000Y-119380000D02*
X191770000Y-121920000D01*
X177800000Y-119380000D02*
X189230000Y-119380000D01*
X175260000Y-116840000D02*
X177800000Y-119380000D01*
D27*
G36*
X194870000Y-128830000D02*
X107390000Y-128830000D01*
X107390000Y-124230130D01*
X108342690Y-124230130D01*
X108342690Y-127229870D01*
X108386968Y-127465187D01*
X108526040Y-127681311D01*
X108738240Y-127826301D01*
X108990130Y-127877310D01*
X111989870Y-127877310D01*
X112225187Y-127833032D01*
X112441311Y-127693960D01*
X112586301Y-127481760D01*
X112637310Y-127229870D01*
X112637310Y-126152789D01*
X113434760Y-126152789D01*
X113759090Y-126937727D01*
X114359114Y-127538800D01*
X115143485Y-127864499D01*
X115992789Y-127865240D01*
X116777727Y-127540910D01*
X117378800Y-126940886D01*
X117704499Y-126156515D01*
X117705240Y-125307211D01*
X117380910Y-124522273D01*
X116780886Y-123921200D01*
X115996515Y-123595501D01*
X115147211Y-123594760D01*
X114362273Y-123919090D01*
X113761200Y-124519114D01*
X113435501Y-125303485D01*
X113434760Y-126152789D01*
X112637310Y-126152789D01*
X112637310Y-124230130D01*
X112593032Y-123994813D01*
X112453960Y-123778689D01*
X112241760Y-123633699D01*
X111989870Y-123582690D01*
X111633000Y-123582690D01*
X111633000Y-122393446D01*
X113503446Y-120523000D01*
X118906554Y-120523000D01*
X119507000Y-121123446D01*
X119507000Y-123892345D01*
X119442273Y-123919090D01*
X118841200Y-124519114D01*
X118515501Y-125303485D01*
X118514760Y-126152789D01*
X118839090Y-126937727D01*
X119439114Y-127538800D01*
X120223485Y-127864499D01*
X121072789Y-127865240D01*
X121857727Y-127540910D01*
X122458800Y-126940886D01*
X122784499Y-126156515D01*
X122784502Y-126152789D01*
X123594760Y-126152789D01*
X123919090Y-126937727D01*
X124519114Y-127538800D01*
X125303485Y-127864499D01*
X126152789Y-127865240D01*
X126937727Y-127540910D01*
X127538800Y-126940886D01*
X127864499Y-126156515D01*
X127864502Y-126152789D01*
X128674760Y-126152789D01*
X128999090Y-126937727D01*
X129599114Y-127538800D01*
X130383485Y-127864499D01*
X131232789Y-127865240D01*
X132017727Y-127540910D01*
X132315279Y-127243877D01*
X134555728Y-127243877D01*
X134715495Y-127562632D01*
X135506217Y-127872595D01*
X136355366Y-127856367D01*
X137064505Y-127562632D01*
X137224272Y-127243877D01*
X135890000Y-125909605D01*
X134555728Y-127243877D01*
X132315279Y-127243877D01*
X132618800Y-126940886D01*
X132944499Y-126156515D01*
X132945205Y-125346217D01*
X133747405Y-125346217D01*
X133763633Y-126195366D01*
X134057368Y-126904505D01*
X134376123Y-127064272D01*
X135710395Y-125730000D01*
X136069605Y-125730000D01*
X137403877Y-127064272D01*
X137722632Y-126904505D01*
X138017304Y-126152789D01*
X138834760Y-126152789D01*
X139159090Y-126937727D01*
X139759114Y-127538800D01*
X140543485Y-127864499D01*
X141392789Y-127865240D01*
X142177727Y-127540910D01*
X142778800Y-126940886D01*
X143104499Y-126156515D01*
X143104502Y-126152789D01*
X143914760Y-126152789D01*
X144239090Y-126937727D01*
X144839114Y-127538800D01*
X145623485Y-127864499D01*
X146472789Y-127865240D01*
X147257727Y-127540910D01*
X147555279Y-127243877D01*
X149795728Y-127243877D01*
X149955495Y-127562632D01*
X150746217Y-127872595D01*
X151595366Y-127856367D01*
X152304505Y-127562632D01*
X152464272Y-127243877D01*
X151130000Y-125909605D01*
X149795728Y-127243877D01*
X147555279Y-127243877D01*
X147858800Y-126940886D01*
X148184499Y-126156515D01*
X148185205Y-125346217D01*
X148987405Y-125346217D01*
X149003633Y-126195366D01*
X149297368Y-126904505D01*
X149616123Y-127064272D01*
X150950395Y-125730000D01*
X151309605Y-125730000D01*
X152643877Y-127064272D01*
X152962632Y-126904505D01*
X153272595Y-126113783D01*
X153256367Y-125264634D01*
X152962632Y-124555495D01*
X152643877Y-124395728D01*
X151309605Y-125730000D01*
X150950395Y-125730000D01*
X149616123Y-124395728D01*
X149297368Y-124555495D01*
X148987405Y-125346217D01*
X148185205Y-125346217D01*
X148185240Y-125307211D01*
X147860910Y-124522273D01*
X147555295Y-124216123D01*
X149795728Y-124216123D01*
X151130000Y-125550395D01*
X152464272Y-124216123D01*
X152304505Y-123897368D01*
X151513783Y-123587405D01*
X150664634Y-123603633D01*
X149955495Y-123897368D01*
X149795728Y-124216123D01*
X147555295Y-124216123D01*
X147260886Y-123921200D01*
X146476515Y-123595501D01*
X145627211Y-123594760D01*
X144842273Y-123919090D01*
X144241200Y-124519114D01*
X143915501Y-125303485D01*
X143914760Y-126152789D01*
X143104502Y-126152789D01*
X143105240Y-125307211D01*
X142780910Y-124522273D01*
X142180886Y-123921200D01*
X141859000Y-123787541D01*
X141859000Y-123558236D01*
X143878236Y-121539000D01*
X146050000Y-121539000D01*
X146390206Y-121471329D01*
X146678618Y-121278618D01*
X150793542Y-117163694D01*
X153305226Y-117163694D01*
X153553538Y-117764655D01*
X154012927Y-118224846D01*
X154613453Y-118474206D01*
X155263694Y-118474774D01*
X155864655Y-118226462D01*
X156324846Y-117767073D01*
X156574206Y-117166547D01*
X156574774Y-116516306D01*
X156326462Y-115915345D01*
X155867073Y-115455154D01*
X155266547Y-115205794D01*
X154616306Y-115205226D01*
X154015345Y-115453538D01*
X153555154Y-115912927D01*
X153305794Y-116513453D01*
X153305226Y-117163694D01*
X150793542Y-117163694D01*
X154038236Y-113919000D01*
X158461993Y-113919000D01*
X158435276Y-113983341D01*
X158434725Y-114613893D01*
X158675519Y-115196657D01*
X159120997Y-115642914D01*
X159703341Y-115884724D01*
X160333893Y-115885275D01*
X160916657Y-115644481D01*
X161290261Y-115271529D01*
X161445612Y-115427152D01*
X155581382Y-121291382D01*
X155388671Y-121579794D01*
X155321000Y-121920000D01*
X155321000Y-123787395D01*
X155002273Y-123919090D01*
X154401200Y-124519114D01*
X154075501Y-125303485D01*
X154074760Y-126152789D01*
X154399090Y-126937727D01*
X154999114Y-127538800D01*
X155783485Y-127864499D01*
X156632789Y-127865240D01*
X157417727Y-127540910D01*
X158018800Y-126940886D01*
X158344499Y-126156515D01*
X158344502Y-126152789D01*
X159154760Y-126152789D01*
X159479090Y-126937727D01*
X160079114Y-127538800D01*
X160863485Y-127864499D01*
X161712789Y-127865240D01*
X162497727Y-127540910D01*
X162795279Y-127243877D01*
X165035728Y-127243877D01*
X165195495Y-127562632D01*
X165986217Y-127872595D01*
X166835366Y-127856367D01*
X167544505Y-127562632D01*
X167704272Y-127243877D01*
X166370000Y-125909605D01*
X165035728Y-127243877D01*
X162795279Y-127243877D01*
X163098800Y-126940886D01*
X163424499Y-126156515D01*
X163425205Y-125346217D01*
X164227405Y-125346217D01*
X164243633Y-126195366D01*
X164537368Y-126904505D01*
X164856123Y-127064272D01*
X166190395Y-125730000D01*
X166549605Y-125730000D01*
X167883877Y-127064272D01*
X168202632Y-126904505D01*
X168512595Y-126113783D01*
X168496367Y-125264634D01*
X168202632Y-124555495D01*
X167883877Y-124395728D01*
X166549605Y-125730000D01*
X166190395Y-125730000D01*
X164856123Y-124395728D01*
X164537368Y-124555495D01*
X164227405Y-125346217D01*
X163425205Y-125346217D01*
X163425240Y-125307211D01*
X163100910Y-124522273D01*
X162795295Y-124216123D01*
X165035728Y-124216123D01*
X166370000Y-125550395D01*
X167704272Y-124216123D01*
X167544505Y-123897368D01*
X166753783Y-123587405D01*
X165904634Y-123603633D01*
X165195495Y-123897368D01*
X165035728Y-124216123D01*
X162795295Y-124216123D01*
X162500886Y-123921200D01*
X161716515Y-123595501D01*
X160867211Y-123594760D01*
X160082273Y-123919090D01*
X159481200Y-124519114D01*
X159155501Y-125303485D01*
X159154760Y-126152789D01*
X158344502Y-126152789D01*
X158345240Y-125307211D01*
X158020910Y-124522273D01*
X157420886Y-123921200D01*
X157099000Y-123787541D01*
X157099000Y-122288236D01*
X163188618Y-116198618D01*
X163381329Y-115910206D01*
X163432172Y-115654598D01*
X163456657Y-115644481D01*
X163830261Y-115271529D01*
X164200997Y-115642914D01*
X164227710Y-115654006D01*
X164278671Y-115910206D01*
X164471382Y-116198618D01*
X170561000Y-122288236D01*
X170561000Y-123787395D01*
X170242273Y-123919090D01*
X169641200Y-124519114D01*
X169315501Y-125303485D01*
X169314760Y-126152789D01*
X169639090Y-126937727D01*
X170239114Y-127538800D01*
X171023485Y-127864499D01*
X171872789Y-127865240D01*
X172657727Y-127540910D01*
X173258800Y-126940886D01*
X173584499Y-126156515D01*
X173584502Y-126152789D01*
X174394760Y-126152789D01*
X174719090Y-126937727D01*
X175319114Y-127538800D01*
X176103485Y-127864499D01*
X176952789Y-127865240D01*
X177737727Y-127540910D01*
X178035279Y-127243877D01*
X180275728Y-127243877D01*
X180435495Y-127562632D01*
X181226217Y-127872595D01*
X182075366Y-127856367D01*
X182784505Y-127562632D01*
X182944272Y-127243877D01*
X181610000Y-125909605D01*
X180275728Y-127243877D01*
X178035279Y-127243877D01*
X178338800Y-126940886D01*
X178664499Y-126156515D01*
X178665205Y-125346217D01*
X179467405Y-125346217D01*
X179483633Y-126195366D01*
X179777368Y-126904505D01*
X180096123Y-127064272D01*
X181430395Y-125730000D01*
X181789605Y-125730000D01*
X183123877Y-127064272D01*
X183442632Y-126904505D01*
X183752595Y-126113783D01*
X183736367Y-125264634D01*
X183442632Y-124555495D01*
X183123877Y-124395728D01*
X181789605Y-125730000D01*
X181430395Y-125730000D01*
X180096123Y-124395728D01*
X179777368Y-124555495D01*
X179467405Y-125346217D01*
X178665205Y-125346217D01*
X178665240Y-125307211D01*
X178340910Y-124522273D01*
X178035295Y-124216123D01*
X180275728Y-124216123D01*
X181610000Y-125550395D01*
X182944272Y-124216123D01*
X182784505Y-123897368D01*
X181993783Y-123587405D01*
X181144634Y-123603633D01*
X180435495Y-123897368D01*
X180275728Y-124216123D01*
X178035295Y-124216123D01*
X177740886Y-123921200D01*
X176956515Y-123595501D01*
X176107211Y-123594760D01*
X175322273Y-123919090D01*
X174721200Y-124519114D01*
X174395501Y-125303485D01*
X174394760Y-126152789D01*
X173584502Y-126152789D01*
X173585240Y-125307211D01*
X173260910Y-124522273D01*
X172660886Y-123921200D01*
X172339000Y-123787541D01*
X172339000Y-121920000D01*
X172271329Y-121579794D01*
X172078618Y-121291382D01*
X166214377Y-115427141D01*
X166370261Y-115271529D01*
X166740997Y-115642914D01*
X167323341Y-115884724D01*
X167953893Y-115885275D01*
X168536657Y-115644481D01*
X168910261Y-115271529D01*
X169280997Y-115642914D01*
X169863341Y-115884724D01*
X170493893Y-115885275D01*
X171076657Y-115644481D01*
X171450261Y-115271529D01*
X171820997Y-115642914D01*
X171831000Y-115647068D01*
X171831000Y-116840000D01*
X171898671Y-117180206D01*
X172086844Y-117461827D01*
X172091382Y-117468618D01*
X175901382Y-121278618D01*
X176189795Y-121471330D01*
X176530000Y-121539000D01*
X183781764Y-121539000D01*
X185801000Y-123558236D01*
X185801000Y-123787395D01*
X185482273Y-123919090D01*
X184881200Y-124519114D01*
X184555501Y-125303485D01*
X184554760Y-126152789D01*
X184879090Y-126937727D01*
X185479114Y-127538800D01*
X186263485Y-127864499D01*
X187112789Y-127865240D01*
X187897727Y-127540910D01*
X188498800Y-126940886D01*
X188824499Y-126156515D01*
X188825240Y-125307211D01*
X188500910Y-124522273D01*
X187900886Y-123921200D01*
X187579000Y-123787541D01*
X187579000Y-123190000D01*
X187511329Y-122849794D01*
X187318618Y-122561382D01*
X185026236Y-120269000D01*
X188861764Y-120269000D01*
X190881000Y-122288236D01*
X190881000Y-123787395D01*
X190562273Y-123919090D01*
X189961200Y-124519114D01*
X189635501Y-125303485D01*
X189634760Y-126152789D01*
X189959090Y-126937727D01*
X190559114Y-127538800D01*
X191343485Y-127864499D01*
X192192789Y-127865240D01*
X192977727Y-127540910D01*
X193578800Y-126940886D01*
X193904499Y-126156515D01*
X193905240Y-125307211D01*
X193580910Y-124522273D01*
X192980886Y-123921200D01*
X192659000Y-123787541D01*
X192659000Y-121920000D01*
X192591329Y-121579794D01*
X192398618Y-121291382D01*
X189858618Y-118751382D01*
X189589820Y-118571777D01*
X189570206Y-118558671D01*
X189230000Y-118491000D01*
X178168236Y-118491000D01*
X176149000Y-116471764D01*
X176149000Y-115647645D01*
X176156657Y-115644481D01*
X176530261Y-115271529D01*
X176900997Y-115642914D01*
X177483341Y-115884724D01*
X178113893Y-115885275D01*
X178696657Y-115644481D01*
X179070261Y-115271529D01*
X179440997Y-115642914D01*
X180023341Y-115884724D01*
X180653893Y-115885275D01*
X181236657Y-115644481D01*
X181610261Y-115271529D01*
X181980997Y-115642914D01*
X182563341Y-115884724D01*
X183193893Y-115885275D01*
X183776657Y-115644481D01*
X184150261Y-115271529D01*
X184520997Y-115642914D01*
X185103341Y-115884724D01*
X185733893Y-115885275D01*
X186316657Y-115644481D01*
X186690261Y-115271529D01*
X187060997Y-115642914D01*
X187643341Y-115884724D01*
X188273893Y-115885275D01*
X188856657Y-115644481D01*
X189085186Y-115416350D01*
X189563255Y-115416350D01*
X189655792Y-115678019D01*
X190247398Y-115896188D01*
X190877461Y-115871352D01*
X191344208Y-115678019D01*
X191436745Y-115416350D01*
X190500000Y-114479605D01*
X189563255Y-115416350D01*
X189085186Y-115416350D01*
X189296116Y-115205789D01*
X189383650Y-115236745D01*
X190320395Y-114300000D01*
X190679605Y-114300000D01*
X191616350Y-115236745D01*
X191704439Y-115205593D01*
X192140997Y-115642914D01*
X192723341Y-115884724D01*
X193353893Y-115885275D01*
X193936657Y-115644481D01*
X194382914Y-115199003D01*
X194624724Y-114616659D01*
X194625275Y-113986107D01*
X194384481Y-113403343D01*
X193939003Y-112957086D01*
X193356659Y-112715276D01*
X192726107Y-112714725D01*
X192143343Y-112955519D01*
X191703884Y-113394211D01*
X191616350Y-113363255D01*
X190679605Y-114300000D01*
X190320395Y-114300000D01*
X189383650Y-113363255D01*
X189295561Y-113394407D01*
X189085172Y-113183650D01*
X189563255Y-113183650D01*
X190500000Y-114120395D01*
X191436745Y-113183650D01*
X191344208Y-112921981D01*
X190752602Y-112703812D01*
X190122539Y-112728648D01*
X189655792Y-112921981D01*
X189563255Y-113183650D01*
X189085172Y-113183650D01*
X188859003Y-112957086D01*
X188276659Y-112715276D01*
X187646107Y-112714725D01*
X187063343Y-112955519D01*
X186689739Y-113328471D01*
X186319003Y-112957086D01*
X185736659Y-112715276D01*
X185106107Y-112714725D01*
X184523343Y-112955519D01*
X184149739Y-113328471D01*
X183779003Y-112957086D01*
X183196659Y-112715276D01*
X182566107Y-112714725D01*
X181983343Y-112955519D01*
X181609739Y-113328471D01*
X181239003Y-112957086D01*
X180656659Y-112715276D01*
X180026107Y-112714725D01*
X179443343Y-112955519D01*
X179069739Y-113328471D01*
X178699003Y-112957086D01*
X178116659Y-112715276D01*
X177486107Y-112714725D01*
X176903343Y-112955519D01*
X176529739Y-113328471D01*
X176159003Y-112957086D01*
X175576659Y-112715276D01*
X174946107Y-112714725D01*
X174363343Y-112955519D01*
X173989739Y-113328471D01*
X173619003Y-112957086D01*
X173036659Y-112715276D01*
X172406107Y-112714725D01*
X171823343Y-112955519D01*
X171449739Y-113328471D01*
X171079003Y-112957086D01*
X170496659Y-112715276D01*
X169866107Y-112714725D01*
X169283343Y-112955519D01*
X168909739Y-113328471D01*
X168539003Y-112957086D01*
X167956659Y-112715276D01*
X167326107Y-112714725D01*
X166743343Y-112955519D01*
X166369739Y-113328471D01*
X165999003Y-112957086D01*
X165416659Y-112715276D01*
X164786107Y-112714725D01*
X164203343Y-112955519D01*
X163829739Y-113328471D01*
X163459003Y-112957086D01*
X162876659Y-112715276D01*
X162246107Y-112714725D01*
X161663343Y-112955519D01*
X161289739Y-113328471D01*
X160919003Y-112957086D01*
X160336659Y-112715276D01*
X160321973Y-112715263D01*
X166738236Y-106299000D01*
X171450000Y-106299000D01*
X171790206Y-106231329D01*
X172078618Y-106038618D01*
X177475689Y-100641547D01*
X177483341Y-100644724D01*
X178113893Y-100645275D01*
X178696657Y-100404481D01*
X179070261Y-100031529D01*
X179440997Y-100402914D01*
X180023341Y-100644724D01*
X180653893Y-100645275D01*
X181236657Y-100404481D01*
X181610261Y-100031529D01*
X181980997Y-100402914D01*
X182563341Y-100644724D01*
X183193893Y-100645275D01*
X183776657Y-100404481D01*
X184150261Y-100031529D01*
X184520997Y-100402914D01*
X185103341Y-100644724D01*
X185733893Y-100645275D01*
X186316657Y-100404481D01*
X186690261Y-100031529D01*
X187060997Y-100402914D01*
X187643341Y-100644724D01*
X188273893Y-100645275D01*
X188856657Y-100404481D01*
X189230261Y-100031529D01*
X189600997Y-100402914D01*
X190183341Y-100644724D01*
X190813893Y-100645275D01*
X191396657Y-100404481D01*
X191625186Y-100176350D01*
X192103255Y-100176350D01*
X192195792Y-100438019D01*
X192787398Y-100656188D01*
X193417461Y-100631352D01*
X193884208Y-100438019D01*
X193976745Y-100176350D01*
X193040000Y-99239605D01*
X192103255Y-100176350D01*
X191625186Y-100176350D01*
X191836116Y-99965789D01*
X191923650Y-99996745D01*
X192860395Y-99060000D01*
X193219605Y-99060000D01*
X194156350Y-99996745D01*
X194418019Y-99904208D01*
X194636188Y-99312602D01*
X194611352Y-98682539D01*
X194418019Y-98215792D01*
X194156350Y-98123255D01*
X193219605Y-99060000D01*
X192860395Y-99060000D01*
X191923650Y-98123255D01*
X191835561Y-98154407D01*
X191625172Y-97943650D01*
X192103255Y-97943650D01*
X193040000Y-98880395D01*
X193976745Y-97943650D01*
X193884208Y-97681981D01*
X193292602Y-97463812D01*
X192662539Y-97488648D01*
X192195792Y-97681981D01*
X192103255Y-97943650D01*
X191625172Y-97943650D01*
X191399003Y-97717086D01*
X190816659Y-97475276D01*
X190186107Y-97474725D01*
X189603343Y-97715519D01*
X189229739Y-98088471D01*
X188859003Y-97717086D01*
X188276659Y-97475276D01*
X187646107Y-97474725D01*
X187063343Y-97715519D01*
X186689739Y-98088471D01*
X186319003Y-97717086D01*
X185736659Y-97475276D01*
X185106107Y-97474725D01*
X184523343Y-97715519D01*
X184149739Y-98088471D01*
X183779003Y-97717086D01*
X183196659Y-97475276D01*
X182566107Y-97474725D01*
X181983343Y-97715519D01*
X181609739Y-98088471D01*
X181239003Y-97717086D01*
X180656659Y-97475276D01*
X180026107Y-97474725D01*
X179443343Y-97715519D01*
X179069739Y-98088471D01*
X178699003Y-97717086D01*
X178116659Y-97475276D01*
X177486107Y-97474725D01*
X176903343Y-97715519D01*
X176529739Y-98088471D01*
X176159003Y-97717086D01*
X175576659Y-97475276D01*
X174946107Y-97474725D01*
X174363343Y-97715519D01*
X173989739Y-98088471D01*
X173619003Y-97717086D01*
X173036659Y-97475276D01*
X172406107Y-97474725D01*
X171823343Y-97715519D01*
X171449739Y-98088471D01*
X171079003Y-97717086D01*
X170496659Y-97475276D01*
X169866107Y-97474725D01*
X169283343Y-97715519D01*
X168909739Y-98088471D01*
X168539003Y-97717086D01*
X168512290Y-97705994D01*
X168461329Y-97449794D01*
X168268618Y-97161382D01*
X166998618Y-95891382D01*
X166812141Y-95766782D01*
X166710206Y-95698671D01*
X166370000Y-95631000D01*
X165468236Y-95631000D01*
X164173731Y-94336495D01*
X164754655Y-94096462D01*
X165214846Y-93637073D01*
X165464206Y-93036547D01*
X165464208Y-93033694D01*
X172355226Y-93033694D01*
X172603538Y-93634655D01*
X173062927Y-94094846D01*
X173663453Y-94344206D01*
X174313694Y-94344774D01*
X174914655Y-94096462D01*
X175374846Y-93637073D01*
X175624206Y-93036547D01*
X175624774Y-92386306D01*
X175376462Y-91785345D01*
X175354950Y-91763795D01*
X178704716Y-91763795D01*
X178953106Y-92364943D01*
X179412637Y-92825278D01*
X180013352Y-93074716D01*
X180663795Y-93075284D01*
X181264943Y-92826894D01*
X181327197Y-92764749D01*
X181341673Y-92799698D01*
X181520301Y-92978327D01*
X181753690Y-93075000D01*
X182594250Y-93075000D01*
X182753000Y-92916250D01*
X182753000Y-91567000D01*
X183007000Y-91567000D01*
X183007000Y-92916250D01*
X183165750Y-93075000D01*
X184006310Y-93075000D01*
X184239699Y-92978327D01*
X184418327Y-92799698D01*
X184515000Y-92566309D01*
X184515000Y-91763795D01*
X186324716Y-91763795D01*
X186573106Y-92364943D01*
X187032637Y-92825278D01*
X187633352Y-93074716D01*
X188283795Y-93075284D01*
X188884943Y-92826894D01*
X188947197Y-92764749D01*
X188961673Y-92799698D01*
X189140301Y-92978327D01*
X189373690Y-93075000D01*
X190214250Y-93075000D01*
X190373000Y-92916250D01*
X190373000Y-91567000D01*
X190627000Y-91567000D01*
X190627000Y-92916250D01*
X190785750Y-93075000D01*
X191626310Y-93075000D01*
X191859699Y-92978327D01*
X192038327Y-92799698D01*
X192135000Y-92566309D01*
X192135000Y-91725750D01*
X191976250Y-91567000D01*
X190627000Y-91567000D01*
X190373000Y-91567000D01*
X190353000Y-91567000D01*
X190353000Y-91313000D01*
X190373000Y-91313000D01*
X190373000Y-89963750D01*
X190627000Y-89963750D01*
X190627000Y-91313000D01*
X191976250Y-91313000D01*
X192135000Y-91154250D01*
X192135000Y-90313691D01*
X192038327Y-90080302D01*
X191859699Y-89901673D01*
X191626310Y-89805000D01*
X190785750Y-89805000D01*
X190627000Y-89963750D01*
X190373000Y-89963750D01*
X190214250Y-89805000D01*
X189373690Y-89805000D01*
X189140301Y-89901673D01*
X188961673Y-90080302D01*
X188947370Y-90114834D01*
X188887363Y-90054722D01*
X188286648Y-89805284D01*
X187636205Y-89804716D01*
X187035057Y-90053106D01*
X186574722Y-90512637D01*
X186325284Y-91113352D01*
X186324716Y-91763795D01*
X184515000Y-91763795D01*
X184515000Y-91725750D01*
X184356250Y-91567000D01*
X183007000Y-91567000D01*
X182753000Y-91567000D01*
X182733000Y-91567000D01*
X182733000Y-91313000D01*
X182753000Y-91313000D01*
X182753000Y-89963750D01*
X183007000Y-89963750D01*
X183007000Y-91313000D01*
X184356250Y-91313000D01*
X184515000Y-91154250D01*
X184515000Y-90313691D01*
X184418327Y-90080302D01*
X184239699Y-89901673D01*
X184006310Y-89805000D01*
X183165750Y-89805000D01*
X183007000Y-89963750D01*
X182753000Y-89963750D01*
X182594250Y-89805000D01*
X181753690Y-89805000D01*
X181520301Y-89901673D01*
X181341673Y-90080302D01*
X181327370Y-90114834D01*
X181267363Y-90054722D01*
X180666648Y-89805284D01*
X180016205Y-89804716D01*
X179415057Y-90053106D01*
X178954722Y-90512637D01*
X178705284Y-91113352D01*
X178704716Y-91763795D01*
X175354950Y-91763795D01*
X174917073Y-91325154D01*
X174316547Y-91075794D01*
X173666306Y-91075226D01*
X173065345Y-91323538D01*
X172605154Y-91782927D01*
X172355794Y-92383453D01*
X172355226Y-93033694D01*
X165464208Y-93033694D01*
X165464774Y-92386306D01*
X165216462Y-91785345D01*
X164757073Y-91325154D01*
X164156547Y-91075794D01*
X163506306Y-91075226D01*
X162905345Y-91323538D01*
X162445154Y-91782927D01*
X162195794Y-92383453D01*
X162195226Y-93033694D01*
X162218904Y-93091000D01*
X158409713Y-93091000D01*
X158578917Y-93059162D01*
X158795041Y-92920090D01*
X158940031Y-92707890D01*
X158991040Y-92456000D01*
X158991040Y-90424000D01*
X158946762Y-90188683D01*
X158807690Y-89972559D01*
X158595490Y-89827569D01*
X158343600Y-89776560D01*
X156616400Y-89776560D01*
X156381083Y-89820838D01*
X156164959Y-89959910D01*
X156019969Y-90172110D01*
X156000768Y-90266927D01*
X155842036Y-90089268D01*
X155314791Y-89835291D01*
X155299026Y-89832642D01*
X155067000Y-89953783D01*
X155067000Y-91313000D01*
X155087000Y-91313000D01*
X155087000Y-91567000D01*
X155067000Y-91567000D01*
X155067000Y-92926217D01*
X155299026Y-93047358D01*
X155314791Y-93044709D01*
X155842036Y-92790732D01*
X155998907Y-92615155D01*
X156013238Y-92691317D01*
X156152310Y-92907441D01*
X156364510Y-93052431D01*
X156554969Y-93091000D01*
X154038236Y-93091000D01*
X153528556Y-92581320D01*
X153666461Y-92374931D01*
X154037964Y-92790732D01*
X154565209Y-93044709D01*
X154580974Y-93047358D01*
X154813000Y-92926217D01*
X154813000Y-91567000D01*
X154793000Y-91567000D01*
X154793000Y-91313000D01*
X154813000Y-91313000D01*
X154813000Y-89953783D01*
X154580974Y-89832642D01*
X154565209Y-89835291D01*
X154037964Y-90089268D01*
X153666461Y-90505069D01*
X153459670Y-90195585D01*
X152973489Y-89870729D01*
X152400000Y-89756655D01*
X151826511Y-89870729D01*
X151340330Y-90195585D01*
X151130000Y-90510366D01*
X150919670Y-90195585D01*
X150433489Y-89870729D01*
X149860000Y-89756655D01*
X149286511Y-89870729D01*
X148800330Y-90195585D01*
X148475474Y-90681766D01*
X148361400Y-91255255D01*
X148361400Y-91624745D01*
X148475474Y-92198234D01*
X148800330Y-92684415D01*
X148991291Y-92812011D01*
X149038671Y-93050206D01*
X149231382Y-93338618D01*
X153041382Y-97148618D01*
X153329795Y-97341330D01*
X153670000Y-97409000D01*
X162191764Y-97409000D01*
X162257499Y-97474735D01*
X162246107Y-97474725D01*
X161663343Y-97715519D01*
X161289739Y-98088471D01*
X160919003Y-97717086D01*
X160336659Y-97475276D01*
X159706107Y-97474725D01*
X159123343Y-97715519D01*
X158677086Y-98160997D01*
X158435276Y-98743341D01*
X158434725Y-99373893D01*
X158675519Y-99956657D01*
X159120997Y-100402914D01*
X159703341Y-100644724D01*
X160333893Y-100645275D01*
X160916657Y-100404481D01*
X161290261Y-100031529D01*
X161660997Y-100402914D01*
X162243341Y-100644724D01*
X162873893Y-100645275D01*
X163456657Y-100404481D01*
X163830261Y-100031529D01*
X164200997Y-100402914D01*
X164783341Y-100644724D01*
X165413893Y-100645275D01*
X165996657Y-100404481D01*
X166370261Y-100031529D01*
X166740997Y-100402914D01*
X167323341Y-100644724D01*
X167953893Y-100645275D01*
X168536657Y-100404481D01*
X168910261Y-100031529D01*
X169280997Y-100402914D01*
X169863341Y-100644724D01*
X170493893Y-100645275D01*
X171076657Y-100404481D01*
X171450261Y-100031529D01*
X171820997Y-100402914D01*
X172403341Y-100644724D01*
X173033893Y-100645275D01*
X173616657Y-100404481D01*
X173990261Y-100031529D01*
X174360997Y-100402914D01*
X174943341Y-100644724D01*
X174958027Y-100644737D01*
X171081764Y-104521000D01*
X166370000Y-104521000D01*
X166029794Y-104588671D01*
X165741382Y-104781382D01*
X158381764Y-112141000D01*
X153670000Y-112141000D01*
X153329794Y-112208671D01*
X153041382Y-112401382D01*
X145681764Y-119761000D01*
X143510000Y-119761000D01*
X143169794Y-119828671D01*
X142881382Y-120021382D01*
X140341382Y-122561382D01*
X140148671Y-122849794D01*
X140081000Y-123190000D01*
X140081000Y-123787395D01*
X139762273Y-123919090D01*
X139161200Y-124519114D01*
X138835501Y-125303485D01*
X138834760Y-126152789D01*
X138017304Y-126152789D01*
X138032595Y-126113783D01*
X138016367Y-125264634D01*
X137722632Y-124555495D01*
X137403877Y-124395728D01*
X136069605Y-125730000D01*
X135710395Y-125730000D01*
X134376123Y-124395728D01*
X134057368Y-124555495D01*
X133747405Y-125346217D01*
X132945205Y-125346217D01*
X132945240Y-125307211D01*
X132620910Y-124522273D01*
X132315295Y-124216123D01*
X134555728Y-124216123D01*
X135890000Y-125550395D01*
X137224272Y-124216123D01*
X137064505Y-123897368D01*
X136273783Y-123587405D01*
X135424634Y-123603633D01*
X134715495Y-123897368D01*
X134555728Y-124216123D01*
X132315295Y-124216123D01*
X132020886Y-123921200D01*
X131236515Y-123595501D01*
X130387211Y-123594760D01*
X129602273Y-123919090D01*
X129001200Y-124519114D01*
X128675501Y-125303485D01*
X128674760Y-126152789D01*
X127864502Y-126152789D01*
X127865240Y-125307211D01*
X127540910Y-124522273D01*
X126940886Y-123921200D01*
X126156515Y-123595501D01*
X125307211Y-123594760D01*
X124522273Y-123919090D01*
X123921200Y-124519114D01*
X123595501Y-125303485D01*
X123594760Y-126152789D01*
X122784502Y-126152789D01*
X122785240Y-125307211D01*
X122460910Y-124522273D01*
X121860886Y-123921200D01*
X121793000Y-123893011D01*
X121793000Y-116596086D01*
X132016269Y-116596086D01*
X132218854Y-117086380D01*
X132593647Y-117461827D01*
X133083587Y-117665268D01*
X133614086Y-117665731D01*
X134104380Y-117463146D01*
X134479827Y-117088353D01*
X134683268Y-116598413D01*
X134683270Y-116596086D01*
X138366269Y-116596086D01*
X138568854Y-117086380D01*
X138943647Y-117461827D01*
X139433587Y-117665268D01*
X139964086Y-117665731D01*
X140454380Y-117463146D01*
X140754354Y-117163694D01*
X143145226Y-117163694D01*
X143393538Y-117764655D01*
X143852927Y-118224846D01*
X144453453Y-118474206D01*
X145103694Y-118474774D01*
X145704655Y-118226462D01*
X146164846Y-117767073D01*
X146414206Y-117166547D01*
X146414774Y-116516306D01*
X146166462Y-115915345D01*
X145707073Y-115455154D01*
X145106547Y-115205794D01*
X144456306Y-115205226D01*
X143855345Y-115453538D01*
X143395154Y-115912927D01*
X143145794Y-116513453D01*
X143145226Y-117163694D01*
X140754354Y-117163694D01*
X140829827Y-117088353D01*
X141033268Y-116598413D01*
X141033731Y-116067914D01*
X140831146Y-115577620D01*
X140456353Y-115202173D01*
X139966413Y-114998732D01*
X139435914Y-114998269D01*
X138945620Y-115200854D01*
X138570173Y-115575647D01*
X138366732Y-116065587D01*
X138366269Y-116596086D01*
X134683270Y-116596086D01*
X134683731Y-116067914D01*
X134481146Y-115577620D01*
X134106353Y-115202173D01*
X133616413Y-114998732D01*
X133085914Y-114998269D01*
X132595620Y-115200854D01*
X132220173Y-115575647D01*
X132016732Y-116065587D01*
X132016269Y-116596086D01*
X121793000Y-116596086D01*
X121793000Y-114404159D01*
X122022567Y-114747730D01*
X122558190Y-115105622D01*
X123190000Y-115231297D01*
X123821810Y-115105622D01*
X124357433Y-114747730D01*
X124460000Y-114594228D01*
X124562567Y-114747730D01*
X125098190Y-115105622D01*
X125730000Y-115231297D01*
X126361810Y-115105622D01*
X126897433Y-114747730D01*
X127000000Y-114594228D01*
X127102567Y-114747730D01*
X127638190Y-115105622D01*
X128270000Y-115231297D01*
X128901810Y-115105622D01*
X129437433Y-114747730D01*
X129795325Y-114212107D01*
X129921000Y-113580297D01*
X129921000Y-112636236D01*
X130533150Y-112024086D01*
X132016269Y-112024086D01*
X132218854Y-112514380D01*
X132593647Y-112889827D01*
X133083587Y-113093268D01*
X133614086Y-113093731D01*
X134104380Y-112891146D01*
X134479827Y-112516353D01*
X134683268Y-112026413D01*
X134683270Y-112024086D01*
X138366269Y-112024086D01*
X138568854Y-112514380D01*
X138943647Y-112889827D01*
X139433587Y-113093268D01*
X139964086Y-113093731D01*
X140454380Y-112891146D01*
X140829827Y-112516353D01*
X141033268Y-112026413D01*
X141033731Y-111495914D01*
X140831146Y-111005620D01*
X140639555Y-110813694D01*
X143145226Y-110813694D01*
X143393538Y-111414655D01*
X143852927Y-111874846D01*
X144453453Y-112124206D01*
X145103694Y-112124774D01*
X145704655Y-111876462D01*
X146164846Y-111417073D01*
X146414206Y-110816547D01*
X146414208Y-110813694D01*
X153305226Y-110813694D01*
X153553538Y-111414655D01*
X154012927Y-111874846D01*
X154613453Y-112124206D01*
X155263694Y-112124774D01*
X155864655Y-111876462D01*
X156324846Y-111417073D01*
X156574206Y-110816547D01*
X156574774Y-110166306D01*
X156326462Y-109565345D01*
X155867073Y-109105154D01*
X155266547Y-108855794D01*
X154616306Y-108855226D01*
X154015345Y-109103538D01*
X153555154Y-109562927D01*
X153305794Y-110163453D01*
X153305226Y-110813694D01*
X146414208Y-110813694D01*
X146414774Y-110166306D01*
X146166462Y-109565345D01*
X145707073Y-109105154D01*
X145106547Y-108855794D01*
X144456306Y-108855226D01*
X143855345Y-109103538D01*
X143395154Y-109562927D01*
X143145794Y-110163453D01*
X143145226Y-110813694D01*
X140639555Y-110813694D01*
X140456353Y-110630173D01*
X139966413Y-110426732D01*
X139435914Y-110426269D01*
X138945620Y-110628854D01*
X138570173Y-111003647D01*
X138366732Y-111493587D01*
X138366269Y-112024086D01*
X134683270Y-112024086D01*
X134683731Y-111495914D01*
X134481146Y-111005620D01*
X134106353Y-110630173D01*
X133616413Y-110426732D01*
X133085914Y-110426269D01*
X132595620Y-110628854D01*
X132220173Y-111003647D01*
X132016732Y-111493587D01*
X132016269Y-112024086D01*
X130533150Y-112024086D01*
X132448236Y-110109000D01*
X140970000Y-110109000D01*
X141310206Y-110041329D01*
X141598618Y-109848618D01*
X145408618Y-106038618D01*
X145601330Y-105750205D01*
X145669000Y-105410000D01*
X145669000Y-104522944D01*
X146730025Y-104522944D01*
X146762074Y-104654477D01*
X147078764Y-105217630D01*
X147586857Y-105616724D01*
X148209000Y-105791000D01*
X148463000Y-105791000D01*
X148463000Y-104267000D01*
X148717000Y-104267000D01*
X148717000Y-105791000D01*
X148971000Y-105791000D01*
X149593143Y-105616724D01*
X150101236Y-105217630D01*
X150417926Y-104654477D01*
X150449975Y-104522944D01*
X150330836Y-104267000D01*
X148717000Y-104267000D01*
X148463000Y-104267000D01*
X146849164Y-104267000D01*
X146730025Y-104522944D01*
X145669000Y-104522944D01*
X145669000Y-103238236D01*
X146418236Y-102489000D01*
X146945203Y-102489000D01*
X147131246Y-102767433D01*
X147305781Y-102884054D01*
X147078764Y-103062370D01*
X146762074Y-103625523D01*
X146730025Y-103757056D01*
X146849164Y-104013000D01*
X148463000Y-104013000D01*
X148463000Y-103993000D01*
X148717000Y-103993000D01*
X148717000Y-104013000D01*
X150330836Y-104013000D01*
X150449975Y-103757056D01*
X150417926Y-103625523D01*
X150101236Y-103062370D01*
X149874219Y-102884054D01*
X150048754Y-102767433D01*
X150406646Y-102231810D01*
X150532321Y-101600000D01*
X150406646Y-100968190D01*
X150048754Y-100432567D01*
X149895252Y-100330000D01*
X150048754Y-100227433D01*
X150406646Y-99691810D01*
X150532321Y-99060000D01*
X150406646Y-98428190D01*
X150048754Y-97892567D01*
X149513131Y-97534675D01*
X148881321Y-97409000D01*
X148298679Y-97409000D01*
X147666869Y-97534675D01*
X147131246Y-97892567D01*
X146773354Y-98428190D01*
X146647679Y-99060000D01*
X146773354Y-99691810D01*
X147131246Y-100227433D01*
X147284748Y-100330000D01*
X147131246Y-100432567D01*
X146945203Y-100711000D01*
X146418236Y-100711000D01*
X145669000Y-99961764D01*
X145669000Y-92838654D01*
X145704655Y-92823922D01*
X146164846Y-92364533D01*
X146414206Y-91764007D01*
X146414774Y-91113766D01*
X146166462Y-90512805D01*
X145707073Y-90052614D01*
X145106547Y-89803254D01*
X144456306Y-89802686D01*
X143855345Y-90050998D01*
X143395154Y-90510387D01*
X143145794Y-91110913D01*
X143145226Y-91761154D01*
X143393538Y-92362115D01*
X143852927Y-92822306D01*
X143891000Y-92838115D01*
X143891000Y-105041764D01*
X140601764Y-108331000D01*
X134226236Y-108331000D01*
X136518618Y-106038618D01*
X136711329Y-105750206D01*
X136779000Y-105410000D01*
X136779000Y-104969095D01*
X136918764Y-105217630D01*
X137426857Y-105616724D01*
X138049000Y-105791000D01*
X138303000Y-105791000D01*
X138303000Y-104267000D01*
X138557000Y-104267000D01*
X138557000Y-105791000D01*
X138811000Y-105791000D01*
X139433143Y-105616724D01*
X139941236Y-105217630D01*
X140257926Y-104654477D01*
X140289975Y-104522944D01*
X140170836Y-104267000D01*
X138557000Y-104267000D01*
X138303000Y-104267000D01*
X138283000Y-104267000D01*
X138283000Y-104013000D01*
X138303000Y-104013000D01*
X138303000Y-103993000D01*
X138557000Y-103993000D01*
X138557000Y-104013000D01*
X140170836Y-104013000D01*
X140289975Y-103757056D01*
X140257926Y-103625523D01*
X139941236Y-103062370D01*
X139714219Y-102884054D01*
X139888754Y-102767433D01*
X140246646Y-102231810D01*
X140372321Y-101600000D01*
X140246646Y-100968190D01*
X139888754Y-100432567D01*
X139735252Y-100330000D01*
X139888754Y-100227433D01*
X140246646Y-99691810D01*
X140372321Y-99060000D01*
X140246646Y-98428190D01*
X139888754Y-97892567D01*
X139353131Y-97534675D01*
X138721321Y-97409000D01*
X138138679Y-97409000D01*
X137506869Y-97534675D01*
X136971246Y-97892567D01*
X136613354Y-98428190D01*
X136487679Y-99060000D01*
X136613354Y-99691810D01*
X136823396Y-100006160D01*
X132708618Y-95891382D01*
X132584236Y-95766782D01*
X132257609Y-95631154D01*
X132042939Y-95630967D01*
X134589516Y-93084390D01*
X135619490Y-93084390D01*
X135854807Y-93040112D01*
X136070931Y-92901040D01*
X136215921Y-92688840D01*
X136266930Y-92436950D01*
X136266930Y-90437970D01*
X136222652Y-90202653D01*
X136083580Y-89986529D01*
X135871380Y-89841539D01*
X135619490Y-89790530D01*
X133620510Y-89790530D01*
X133385193Y-89834808D01*
X133169069Y-89973880D01*
X133024079Y-90186080D01*
X132973070Y-90437970D01*
X132973070Y-91467944D01*
X127461777Y-96979237D01*
X127214006Y-97350053D01*
X127151288Y-97665358D01*
X126811246Y-97892567D01*
X126794920Y-97917000D01*
X120357640Y-97917000D01*
X120357640Y-97309940D01*
X120313362Y-97074623D01*
X120174290Y-96858499D01*
X119962090Y-96713509D01*
X119710200Y-96662500D01*
X119103140Y-96662500D01*
X119103140Y-93084390D01*
X119109490Y-93084390D01*
X119344807Y-93040112D01*
X119560931Y-92901040D01*
X119705921Y-92688840D01*
X119756930Y-92436950D01*
X119756930Y-91761154D01*
X126635226Y-91761154D01*
X126883538Y-92362115D01*
X127342927Y-92822306D01*
X127943453Y-93071666D01*
X128593694Y-93072234D01*
X129194655Y-92823922D01*
X129654846Y-92364533D01*
X129904206Y-91764007D01*
X129904774Y-91113766D01*
X129656462Y-90512805D01*
X129197073Y-90052614D01*
X128596547Y-89803254D01*
X127946306Y-89802686D01*
X127345345Y-90050998D01*
X126885154Y-90510387D01*
X126635794Y-91110913D01*
X126635226Y-91761154D01*
X119756930Y-91761154D01*
X119756930Y-90437970D01*
X119712652Y-90202653D01*
X119573580Y-89986529D01*
X119361380Y-89841539D01*
X119109490Y-89790530D01*
X117110510Y-89790530D01*
X116875193Y-89834808D01*
X116659069Y-89973880D01*
X116514079Y-90186080D01*
X116463070Y-90437970D01*
X116463070Y-92436950D01*
X116507348Y-92672267D01*
X116646420Y-92888391D01*
X116817140Y-93005039D01*
X116817140Y-96662500D01*
X116210080Y-96662500D01*
X115974763Y-96706778D01*
X115758639Y-96845850D01*
X115613649Y-97058050D01*
X115562640Y-97309940D01*
X115562640Y-100810060D01*
X115606918Y-101045377D01*
X115745990Y-101261501D01*
X115910550Y-101373940D01*
X115246150Y-101373940D01*
X115087400Y-101532690D01*
X115087400Y-103632000D01*
X117186710Y-103632000D01*
X117345460Y-103473250D01*
X117345460Y-101882630D01*
X117248787Y-101649241D01*
X117070158Y-101470613D01*
X117038500Y-101457500D01*
X118891054Y-101457500D01*
X119507000Y-102073446D01*
X119507000Y-117636554D01*
X118906554Y-118237000D01*
X113030000Y-118237000D01*
X112592593Y-118324006D01*
X112221777Y-118571777D01*
X109681777Y-121111777D01*
X109434006Y-121482593D01*
X109347000Y-121920000D01*
X109347000Y-123582690D01*
X108990130Y-123582690D01*
X108754813Y-123626968D01*
X108538689Y-123766040D01*
X108393699Y-123978240D01*
X108342690Y-124230130D01*
X107390000Y-124230130D01*
X107390000Y-112479703D01*
X108839000Y-112479703D01*
X108839000Y-113580297D01*
X108964675Y-114212107D01*
X109322567Y-114747730D01*
X109858190Y-115105622D01*
X110490000Y-115231297D01*
X111121810Y-115105622D01*
X111657433Y-114747730D01*
X111760000Y-114594228D01*
X111862567Y-114747730D01*
X112398190Y-115105622D01*
X113030000Y-115231297D01*
X113661810Y-115105622D01*
X114197433Y-114747730D01*
X114300000Y-114594228D01*
X114402567Y-114747730D01*
X114938190Y-115105622D01*
X115570000Y-115231297D01*
X116201810Y-115105622D01*
X116737433Y-114747730D01*
X117095325Y-114212107D01*
X117221000Y-113580297D01*
X117221000Y-112479703D01*
X117095325Y-111847893D01*
X116737433Y-111312270D01*
X116201810Y-110954378D01*
X115570000Y-110828703D01*
X114938190Y-110954378D01*
X114402567Y-111312270D01*
X114300000Y-111465772D01*
X114197433Y-111312270D01*
X113661810Y-110954378D01*
X113030000Y-110828703D01*
X112398190Y-110954378D01*
X111862567Y-111312270D01*
X111760000Y-111465772D01*
X111657433Y-111312270D01*
X111121810Y-110954378D01*
X110490000Y-110828703D01*
X109858190Y-110954378D01*
X109322567Y-111312270D01*
X108964675Y-111847893D01*
X108839000Y-112479703D01*
X107390000Y-112479703D01*
X107390000Y-104044750D01*
X112575340Y-104044750D01*
X112575340Y-105635370D01*
X112672013Y-105868759D01*
X112850642Y-106047387D01*
X113084031Y-106144060D01*
X114674650Y-106144060D01*
X114833400Y-105985310D01*
X114833400Y-103886000D01*
X115087400Y-103886000D01*
X115087400Y-105985310D01*
X115246150Y-106144060D01*
X116836769Y-106144060D01*
X117070158Y-106047387D01*
X117248787Y-105868759D01*
X117345460Y-105635370D01*
X117345460Y-104044750D01*
X117186710Y-103886000D01*
X115087400Y-103886000D01*
X114833400Y-103886000D01*
X112734090Y-103886000D01*
X112575340Y-104044750D01*
X107390000Y-104044750D01*
X107390000Y-99345750D01*
X109575600Y-99345750D01*
X109575600Y-100936370D01*
X109672273Y-101169759D01*
X109850902Y-101348387D01*
X110084291Y-101445060D01*
X111674910Y-101445060D01*
X111833660Y-101286310D01*
X111833660Y-99187000D01*
X112087660Y-99187000D01*
X112087660Y-101286310D01*
X112246410Y-101445060D01*
X112912332Y-101445060D01*
X112850642Y-101470613D01*
X112672013Y-101649241D01*
X112575340Y-101882630D01*
X112575340Y-103473250D01*
X112734090Y-103632000D01*
X114833400Y-103632000D01*
X114833400Y-101532690D01*
X114674650Y-101373940D01*
X114008728Y-101373940D01*
X114070418Y-101348387D01*
X114249047Y-101169759D01*
X114345720Y-100936370D01*
X114345720Y-99345750D01*
X114186970Y-99187000D01*
X112087660Y-99187000D01*
X111833660Y-99187000D01*
X109734350Y-99187000D01*
X109575600Y-99345750D01*
X107390000Y-99345750D01*
X107390000Y-97183630D01*
X109575600Y-97183630D01*
X109575600Y-98774250D01*
X109734350Y-98933000D01*
X111833660Y-98933000D01*
X111833660Y-96833690D01*
X112087660Y-96833690D01*
X112087660Y-98933000D01*
X114186970Y-98933000D01*
X114345720Y-98774250D01*
X114345720Y-97183630D01*
X114249047Y-96950241D01*
X114070418Y-96771613D01*
X113837029Y-96674940D01*
X112246410Y-96674940D01*
X112087660Y-96833690D01*
X111833660Y-96833690D01*
X111674910Y-96674940D01*
X110084291Y-96674940D01*
X109850902Y-96771613D01*
X109672273Y-96950241D01*
X109575600Y-97183630D01*
X107390000Y-97183630D01*
X107390000Y-89223694D01*
X162195226Y-89223694D01*
X162443538Y-89824655D01*
X162902927Y-90284846D01*
X163503453Y-90534206D01*
X164153694Y-90534774D01*
X164754655Y-90286462D01*
X165214846Y-89827073D01*
X165464206Y-89226547D01*
X165464208Y-89223694D01*
X172355226Y-89223694D01*
X172603538Y-89824655D01*
X173062927Y-90284846D01*
X173663453Y-90534206D01*
X174313694Y-90534774D01*
X174914655Y-90286462D01*
X175374846Y-89827073D01*
X175624206Y-89226547D01*
X175624774Y-88576306D01*
X175376462Y-87975345D01*
X174917073Y-87515154D01*
X174316547Y-87265794D01*
X173666306Y-87265226D01*
X173065345Y-87513538D01*
X172605154Y-87972927D01*
X172355794Y-88573453D01*
X172355226Y-89223694D01*
X165464208Y-89223694D01*
X165464774Y-88576306D01*
X165216462Y-87975345D01*
X164757073Y-87515154D01*
X164156547Y-87265794D01*
X163506306Y-87265226D01*
X162905345Y-87513538D01*
X162445154Y-87972927D01*
X162195794Y-88573453D01*
X162195226Y-89223694D01*
X107390000Y-89223694D01*
X107390000Y-87070000D01*
X194870000Y-87070000D01*
X194870000Y-128830000D01*
X194870000Y-128830000D01*
G37*
X194870000Y-128830000D02*
X107390000Y-128830000D01*
X107390000Y-124230130D01*
X108342690Y-124230130D01*
X108342690Y-127229870D01*
X108386968Y-127465187D01*
X108526040Y-127681311D01*
X108738240Y-127826301D01*
X108990130Y-127877310D01*
X111989870Y-127877310D01*
X112225187Y-127833032D01*
X112441311Y-127693960D01*
X112586301Y-127481760D01*
X112637310Y-127229870D01*
X112637310Y-126152789D01*
X113434760Y-126152789D01*
X113759090Y-126937727D01*
X114359114Y-127538800D01*
X115143485Y-127864499D01*
X115992789Y-127865240D01*
X116777727Y-127540910D01*
X117378800Y-126940886D01*
X117704499Y-126156515D01*
X117705240Y-125307211D01*
X117380910Y-124522273D01*
X116780886Y-123921200D01*
X115996515Y-123595501D01*
X115147211Y-123594760D01*
X114362273Y-123919090D01*
X113761200Y-124519114D01*
X113435501Y-125303485D01*
X113434760Y-126152789D01*
X112637310Y-126152789D01*
X112637310Y-124230130D01*
X112593032Y-123994813D01*
X112453960Y-123778689D01*
X112241760Y-123633699D01*
X111989870Y-123582690D01*
X111633000Y-123582690D01*
X111633000Y-122393446D01*
X113503446Y-120523000D01*
X118906554Y-120523000D01*
X119507000Y-121123446D01*
X119507000Y-123892345D01*
X119442273Y-123919090D01*
X118841200Y-124519114D01*
X118515501Y-125303485D01*
X118514760Y-126152789D01*
X118839090Y-126937727D01*
X119439114Y-127538800D01*
X120223485Y-127864499D01*
X121072789Y-127865240D01*
X121857727Y-127540910D01*
X122458800Y-126940886D01*
X122784499Y-126156515D01*
X122784502Y-126152789D01*
X123594760Y-126152789D01*
X123919090Y-126937727D01*
X124519114Y-127538800D01*
X125303485Y-127864499D01*
X126152789Y-127865240D01*
X126937727Y-127540910D01*
X127538800Y-126940886D01*
X127864499Y-126156515D01*
X127864502Y-126152789D01*
X128674760Y-126152789D01*
X128999090Y-126937727D01*
X129599114Y-127538800D01*
X130383485Y-127864499D01*
X131232789Y-127865240D01*
X132017727Y-127540910D01*
X132315279Y-127243877D01*
X134555728Y-127243877D01*
X134715495Y-127562632D01*
X135506217Y-127872595D01*
X136355366Y-127856367D01*
X137064505Y-127562632D01*
X137224272Y-127243877D01*
X135890000Y-125909605D01*
X134555728Y-127243877D01*
X132315279Y-127243877D01*
X132618800Y-126940886D01*
X132944499Y-126156515D01*
X132945205Y-125346217D01*
X133747405Y-125346217D01*
X133763633Y-126195366D01*
X134057368Y-126904505D01*
X134376123Y-127064272D01*
X135710395Y-125730000D01*
X136069605Y-125730000D01*
X137403877Y-127064272D01*
X137722632Y-126904505D01*
X138017304Y-126152789D01*
X138834760Y-126152789D01*
X139159090Y-126937727D01*
X139759114Y-127538800D01*
X140543485Y-127864499D01*
X141392789Y-127865240D01*
X142177727Y-127540910D01*
X142778800Y-126940886D01*
X143104499Y-126156515D01*
X143104502Y-126152789D01*
X143914760Y-126152789D01*
X144239090Y-126937727D01*
X144839114Y-127538800D01*
X145623485Y-127864499D01*
X146472789Y-127865240D01*
X147257727Y-127540910D01*
X147555279Y-127243877D01*
X149795728Y-127243877D01*
X149955495Y-127562632D01*
X150746217Y-127872595D01*
X151595366Y-127856367D01*
X152304505Y-127562632D01*
X152464272Y-127243877D01*
X151130000Y-125909605D01*
X149795728Y-127243877D01*
X147555279Y-127243877D01*
X147858800Y-126940886D01*
X148184499Y-126156515D01*
X148185205Y-125346217D01*
X148987405Y-125346217D01*
X149003633Y-126195366D01*
X149297368Y-126904505D01*
X149616123Y-127064272D01*
X150950395Y-125730000D01*
X151309605Y-125730000D01*
X152643877Y-127064272D01*
X152962632Y-126904505D01*
X153272595Y-126113783D01*
X153256367Y-125264634D01*
X152962632Y-124555495D01*
X152643877Y-124395728D01*
X151309605Y-125730000D01*
X150950395Y-125730000D01*
X149616123Y-124395728D01*
X149297368Y-124555495D01*
X148987405Y-125346217D01*
X148185205Y-125346217D01*
X148185240Y-125307211D01*
X147860910Y-124522273D01*
X147555295Y-124216123D01*
X149795728Y-124216123D01*
X151130000Y-125550395D01*
X152464272Y-124216123D01*
X152304505Y-123897368D01*
X151513783Y-123587405D01*
X150664634Y-123603633D01*
X149955495Y-123897368D01*
X149795728Y-124216123D01*
X147555295Y-124216123D01*
X147260886Y-123921200D01*
X146476515Y-123595501D01*
X145627211Y-123594760D01*
X144842273Y-123919090D01*
X144241200Y-124519114D01*
X143915501Y-125303485D01*
X143914760Y-126152789D01*
X143104502Y-126152789D01*
X143105240Y-125307211D01*
X142780910Y-124522273D01*
X142180886Y-123921200D01*
X141859000Y-123787541D01*
X141859000Y-123558236D01*
X143878236Y-121539000D01*
X146050000Y-121539000D01*
X146390206Y-121471329D01*
X146678618Y-121278618D01*
X150793542Y-117163694D01*
X153305226Y-117163694D01*
X153553538Y-117764655D01*
X154012927Y-118224846D01*
X154613453Y-118474206D01*
X155263694Y-118474774D01*
X155864655Y-118226462D01*
X156324846Y-117767073D01*
X156574206Y-117166547D01*
X156574774Y-116516306D01*
X156326462Y-115915345D01*
X155867073Y-115455154D01*
X155266547Y-115205794D01*
X154616306Y-115205226D01*
X154015345Y-115453538D01*
X153555154Y-115912927D01*
X153305794Y-116513453D01*
X153305226Y-117163694D01*
X150793542Y-117163694D01*
X154038236Y-113919000D01*
X158461993Y-113919000D01*
X158435276Y-113983341D01*
X158434725Y-114613893D01*
X158675519Y-115196657D01*
X159120997Y-115642914D01*
X159703341Y-115884724D01*
X160333893Y-115885275D01*
X160916657Y-115644481D01*
X161290261Y-115271529D01*
X161445612Y-115427152D01*
X155581382Y-121291382D01*
X155388671Y-121579794D01*
X155321000Y-121920000D01*
X155321000Y-123787395D01*
X155002273Y-123919090D01*
X154401200Y-124519114D01*
X154075501Y-125303485D01*
X154074760Y-126152789D01*
X154399090Y-126937727D01*
X154999114Y-127538800D01*
X155783485Y-127864499D01*
X156632789Y-127865240D01*
X157417727Y-127540910D01*
X158018800Y-126940886D01*
X158344499Y-126156515D01*
X158344502Y-126152789D01*
X159154760Y-126152789D01*
X159479090Y-126937727D01*
X160079114Y-127538800D01*
X160863485Y-127864499D01*
X161712789Y-127865240D01*
X162497727Y-127540910D01*
X162795279Y-127243877D01*
X165035728Y-127243877D01*
X165195495Y-127562632D01*
X165986217Y-127872595D01*
X166835366Y-127856367D01*
X167544505Y-127562632D01*
X167704272Y-127243877D01*
X166370000Y-125909605D01*
X165035728Y-127243877D01*
X162795279Y-127243877D01*
X163098800Y-126940886D01*
X163424499Y-126156515D01*
X163425205Y-125346217D01*
X164227405Y-125346217D01*
X164243633Y-126195366D01*
X164537368Y-126904505D01*
X164856123Y-127064272D01*
X166190395Y-125730000D01*
X166549605Y-125730000D01*
X167883877Y-127064272D01*
X168202632Y-126904505D01*
X168512595Y-126113783D01*
X168496367Y-125264634D01*
X168202632Y-124555495D01*
X167883877Y-124395728D01*
X166549605Y-125730000D01*
X166190395Y-125730000D01*
X164856123Y-124395728D01*
X164537368Y-124555495D01*
X164227405Y-125346217D01*
X163425205Y-125346217D01*
X163425240Y-125307211D01*
X163100910Y-124522273D01*
X162795295Y-124216123D01*
X165035728Y-124216123D01*
X166370000Y-125550395D01*
X167704272Y-124216123D01*
X167544505Y-123897368D01*
X166753783Y-123587405D01*
X165904634Y-123603633D01*
X165195495Y-123897368D01*
X165035728Y-124216123D01*
X162795295Y-124216123D01*
X162500886Y-123921200D01*
X161716515Y-123595501D01*
X160867211Y-123594760D01*
X160082273Y-123919090D01*
X159481200Y-124519114D01*
X159155501Y-125303485D01*
X159154760Y-126152789D01*
X158344502Y-126152789D01*
X158345240Y-125307211D01*
X158020910Y-124522273D01*
X157420886Y-123921200D01*
X157099000Y-123787541D01*
X157099000Y-122288236D01*
X163188618Y-116198618D01*
X163381329Y-115910206D01*
X163432172Y-115654598D01*
X163456657Y-115644481D01*
X163830261Y-115271529D01*
X164200997Y-115642914D01*
X164227710Y-115654006D01*
X164278671Y-115910206D01*
X164471382Y-116198618D01*
X170561000Y-122288236D01*
X170561000Y-123787395D01*
X170242273Y-123919090D01*
X169641200Y-124519114D01*
X169315501Y-125303485D01*
X169314760Y-126152789D01*
X169639090Y-126937727D01*
X170239114Y-127538800D01*
X171023485Y-127864499D01*
X171872789Y-127865240D01*
X172657727Y-127540910D01*
X173258800Y-126940886D01*
X173584499Y-126156515D01*
X173584502Y-126152789D01*
X174394760Y-126152789D01*
X174719090Y-126937727D01*
X175319114Y-127538800D01*
X176103485Y-127864499D01*
X176952789Y-127865240D01*
X177737727Y-127540910D01*
X178035279Y-127243877D01*
X180275728Y-127243877D01*
X180435495Y-127562632D01*
X181226217Y-127872595D01*
X182075366Y-127856367D01*
X182784505Y-127562632D01*
X182944272Y-127243877D01*
X181610000Y-125909605D01*
X180275728Y-127243877D01*
X178035279Y-127243877D01*
X178338800Y-126940886D01*
X178664499Y-126156515D01*
X178665205Y-125346217D01*
X179467405Y-125346217D01*
X179483633Y-126195366D01*
X179777368Y-126904505D01*
X180096123Y-127064272D01*
X181430395Y-125730000D01*
X181789605Y-125730000D01*
X183123877Y-127064272D01*
X183442632Y-126904505D01*
X183752595Y-126113783D01*
X183736367Y-125264634D01*
X183442632Y-124555495D01*
X183123877Y-124395728D01*
X181789605Y-125730000D01*
X181430395Y-125730000D01*
X180096123Y-124395728D01*
X179777368Y-124555495D01*
X179467405Y-125346217D01*
X178665205Y-125346217D01*
X178665240Y-125307211D01*
X178340910Y-124522273D01*
X178035295Y-124216123D01*
X180275728Y-124216123D01*
X181610000Y-125550395D01*
X182944272Y-124216123D01*
X182784505Y-123897368D01*
X181993783Y-123587405D01*
X181144634Y-123603633D01*
X180435495Y-123897368D01*
X180275728Y-124216123D01*
X178035295Y-124216123D01*
X177740886Y-123921200D01*
X176956515Y-123595501D01*
X176107211Y-123594760D01*
X175322273Y-123919090D01*
X174721200Y-124519114D01*
X174395501Y-125303485D01*
X174394760Y-126152789D01*
X173584502Y-126152789D01*
X173585240Y-125307211D01*
X173260910Y-124522273D01*
X172660886Y-123921200D01*
X172339000Y-123787541D01*
X172339000Y-121920000D01*
X172271329Y-121579794D01*
X172078618Y-121291382D01*
X166214377Y-115427141D01*
X166370261Y-115271529D01*
X166740997Y-115642914D01*
X167323341Y-115884724D01*
X167953893Y-115885275D01*
X168536657Y-115644481D01*
X168910261Y-115271529D01*
X169280997Y-115642914D01*
X169863341Y-115884724D01*
X170493893Y-115885275D01*
X171076657Y-115644481D01*
X171450261Y-115271529D01*
X171820997Y-115642914D01*
X171831000Y-115647068D01*
X171831000Y-116840000D01*
X171898671Y-117180206D01*
X172086844Y-117461827D01*
X172091382Y-117468618D01*
X175901382Y-121278618D01*
X176189795Y-121471330D01*
X176530000Y-121539000D01*
X183781764Y-121539000D01*
X185801000Y-123558236D01*
X185801000Y-123787395D01*
X185482273Y-123919090D01*
X184881200Y-124519114D01*
X184555501Y-125303485D01*
X184554760Y-126152789D01*
X184879090Y-126937727D01*
X185479114Y-127538800D01*
X186263485Y-127864499D01*
X187112789Y-127865240D01*
X187897727Y-127540910D01*
X188498800Y-126940886D01*
X188824499Y-126156515D01*
X188825240Y-125307211D01*
X188500910Y-124522273D01*
X187900886Y-123921200D01*
X187579000Y-123787541D01*
X187579000Y-123190000D01*
X187511329Y-122849794D01*
X187318618Y-122561382D01*
X185026236Y-120269000D01*
X188861764Y-120269000D01*
X190881000Y-122288236D01*
X190881000Y-123787395D01*
X190562273Y-123919090D01*
X189961200Y-124519114D01*
X189635501Y-125303485D01*
X189634760Y-126152789D01*
X189959090Y-126937727D01*
X190559114Y-127538800D01*
X191343485Y-127864499D01*
X192192789Y-127865240D01*
X192977727Y-127540910D01*
X193578800Y-126940886D01*
X193904499Y-126156515D01*
X193905240Y-125307211D01*
X193580910Y-124522273D01*
X192980886Y-123921200D01*
X192659000Y-123787541D01*
X192659000Y-121920000D01*
X192591329Y-121579794D01*
X192398618Y-121291382D01*
X189858618Y-118751382D01*
X189589820Y-118571777D01*
X189570206Y-118558671D01*
X189230000Y-118491000D01*
X178168236Y-118491000D01*
X176149000Y-116471764D01*
X176149000Y-115647645D01*
X176156657Y-115644481D01*
X176530261Y-115271529D01*
X176900997Y-115642914D01*
X177483341Y-115884724D01*
X178113893Y-115885275D01*
X178696657Y-115644481D01*
X179070261Y-115271529D01*
X179440997Y-115642914D01*
X180023341Y-115884724D01*
X180653893Y-115885275D01*
X181236657Y-115644481D01*
X181610261Y-115271529D01*
X181980997Y-115642914D01*
X182563341Y-115884724D01*
X183193893Y-115885275D01*
X183776657Y-115644481D01*
X184150261Y-115271529D01*
X184520997Y-115642914D01*
X185103341Y-115884724D01*
X185733893Y-115885275D01*
X186316657Y-115644481D01*
X186690261Y-115271529D01*
X187060997Y-115642914D01*
X187643341Y-115884724D01*
X188273893Y-115885275D01*
X188856657Y-115644481D01*
X189085186Y-115416350D01*
X189563255Y-115416350D01*
X189655792Y-115678019D01*
X190247398Y-115896188D01*
X190877461Y-115871352D01*
X191344208Y-115678019D01*
X191436745Y-115416350D01*
X190500000Y-114479605D01*
X189563255Y-115416350D01*
X189085186Y-115416350D01*
X189296116Y-115205789D01*
X189383650Y-115236745D01*
X190320395Y-114300000D01*
X190679605Y-114300000D01*
X191616350Y-115236745D01*
X191704439Y-115205593D01*
X192140997Y-115642914D01*
X192723341Y-115884724D01*
X193353893Y-115885275D01*
X193936657Y-115644481D01*
X194382914Y-115199003D01*
X194624724Y-114616659D01*
X194625275Y-113986107D01*
X194384481Y-113403343D01*
X193939003Y-112957086D01*
X193356659Y-112715276D01*
X192726107Y-112714725D01*
X192143343Y-112955519D01*
X191703884Y-113394211D01*
X191616350Y-113363255D01*
X190679605Y-114300000D01*
X190320395Y-114300000D01*
X189383650Y-113363255D01*
X189295561Y-113394407D01*
X189085172Y-113183650D01*
X189563255Y-113183650D01*
X190500000Y-114120395D01*
X191436745Y-113183650D01*
X191344208Y-112921981D01*
X190752602Y-112703812D01*
X190122539Y-112728648D01*
X189655792Y-112921981D01*
X189563255Y-113183650D01*
X189085172Y-113183650D01*
X188859003Y-112957086D01*
X188276659Y-112715276D01*
X187646107Y-112714725D01*
X187063343Y-112955519D01*
X186689739Y-113328471D01*
X186319003Y-112957086D01*
X185736659Y-112715276D01*
X185106107Y-112714725D01*
X184523343Y-112955519D01*
X184149739Y-113328471D01*
X183779003Y-112957086D01*
X183196659Y-112715276D01*
X182566107Y-112714725D01*
X181983343Y-112955519D01*
X181609739Y-113328471D01*
X181239003Y-112957086D01*
X180656659Y-112715276D01*
X180026107Y-112714725D01*
X179443343Y-112955519D01*
X179069739Y-113328471D01*
X178699003Y-112957086D01*
X178116659Y-112715276D01*
X177486107Y-112714725D01*
X176903343Y-112955519D01*
X176529739Y-113328471D01*
X176159003Y-112957086D01*
X175576659Y-112715276D01*
X174946107Y-112714725D01*
X174363343Y-112955519D01*
X173989739Y-113328471D01*
X173619003Y-112957086D01*
X173036659Y-112715276D01*
X172406107Y-112714725D01*
X171823343Y-112955519D01*
X171449739Y-113328471D01*
X171079003Y-112957086D01*
X170496659Y-112715276D01*
X169866107Y-112714725D01*
X169283343Y-112955519D01*
X168909739Y-113328471D01*
X168539003Y-112957086D01*
X167956659Y-112715276D01*
X167326107Y-112714725D01*
X166743343Y-112955519D01*
X166369739Y-113328471D01*
X165999003Y-112957086D01*
X165416659Y-112715276D01*
X164786107Y-112714725D01*
X164203343Y-112955519D01*
X163829739Y-113328471D01*
X163459003Y-112957086D01*
X162876659Y-112715276D01*
X162246107Y-112714725D01*
X161663343Y-112955519D01*
X161289739Y-113328471D01*
X160919003Y-112957086D01*
X160336659Y-112715276D01*
X160321973Y-112715263D01*
X166738236Y-106299000D01*
X171450000Y-106299000D01*
X171790206Y-106231329D01*
X172078618Y-106038618D01*
X177475689Y-100641547D01*
X177483341Y-100644724D01*
X178113893Y-100645275D01*
X178696657Y-100404481D01*
X179070261Y-100031529D01*
X179440997Y-100402914D01*
X180023341Y-100644724D01*
X180653893Y-100645275D01*
X181236657Y-100404481D01*
X181610261Y-100031529D01*
X181980997Y-100402914D01*
X182563341Y-100644724D01*
X183193893Y-100645275D01*
X183776657Y-100404481D01*
X184150261Y-100031529D01*
X184520997Y-100402914D01*
X185103341Y-100644724D01*
X185733893Y-100645275D01*
X186316657Y-100404481D01*
X186690261Y-100031529D01*
X187060997Y-100402914D01*
X187643341Y-100644724D01*
X188273893Y-100645275D01*
X188856657Y-100404481D01*
X189230261Y-100031529D01*
X189600997Y-100402914D01*
X190183341Y-100644724D01*
X190813893Y-100645275D01*
X191396657Y-100404481D01*
X191625186Y-100176350D01*
X192103255Y-100176350D01*
X192195792Y-100438019D01*
X192787398Y-100656188D01*
X193417461Y-100631352D01*
X193884208Y-100438019D01*
X193976745Y-100176350D01*
X193040000Y-99239605D01*
X192103255Y-100176350D01*
X191625186Y-100176350D01*
X191836116Y-99965789D01*
X191923650Y-99996745D01*
X192860395Y-99060000D01*
X193219605Y-99060000D01*
X194156350Y-99996745D01*
X194418019Y-99904208D01*
X194636188Y-99312602D01*
X194611352Y-98682539D01*
X194418019Y-98215792D01*
X194156350Y-98123255D01*
X193219605Y-99060000D01*
X192860395Y-99060000D01*
X191923650Y-98123255D01*
X191835561Y-98154407D01*
X191625172Y-97943650D01*
X192103255Y-97943650D01*
X193040000Y-98880395D01*
X193976745Y-97943650D01*
X193884208Y-97681981D01*
X193292602Y-97463812D01*
X192662539Y-97488648D01*
X192195792Y-97681981D01*
X192103255Y-97943650D01*
X191625172Y-97943650D01*
X191399003Y-97717086D01*
X190816659Y-97475276D01*
X190186107Y-97474725D01*
X189603343Y-97715519D01*
X189229739Y-98088471D01*
X188859003Y-97717086D01*
X188276659Y-97475276D01*
X187646107Y-97474725D01*
X187063343Y-97715519D01*
X186689739Y-98088471D01*
X186319003Y-97717086D01*
X185736659Y-97475276D01*
X185106107Y-97474725D01*
X184523343Y-97715519D01*
X184149739Y-98088471D01*
X183779003Y-97717086D01*
X183196659Y-97475276D01*
X182566107Y-97474725D01*
X181983343Y-97715519D01*
X181609739Y-98088471D01*
X181239003Y-97717086D01*
X180656659Y-97475276D01*
X180026107Y-97474725D01*
X179443343Y-97715519D01*
X179069739Y-98088471D01*
X178699003Y-97717086D01*
X178116659Y-97475276D01*
X177486107Y-97474725D01*
X176903343Y-97715519D01*
X176529739Y-98088471D01*
X176159003Y-97717086D01*
X175576659Y-97475276D01*
X174946107Y-97474725D01*
X174363343Y-97715519D01*
X173989739Y-98088471D01*
X173619003Y-97717086D01*
X173036659Y-97475276D01*
X172406107Y-97474725D01*
X171823343Y-97715519D01*
X171449739Y-98088471D01*
X171079003Y-97717086D01*
X170496659Y-97475276D01*
X169866107Y-97474725D01*
X169283343Y-97715519D01*
X168909739Y-98088471D01*
X168539003Y-97717086D01*
X168512290Y-97705994D01*
X168461329Y-97449794D01*
X168268618Y-97161382D01*
X166998618Y-95891382D01*
X166812141Y-95766782D01*
X166710206Y-95698671D01*
X166370000Y-95631000D01*
X165468236Y-95631000D01*
X164173731Y-94336495D01*
X164754655Y-94096462D01*
X165214846Y-93637073D01*
X165464206Y-93036547D01*
X165464208Y-93033694D01*
X172355226Y-93033694D01*
X172603538Y-93634655D01*
X173062927Y-94094846D01*
X173663453Y-94344206D01*
X174313694Y-94344774D01*
X174914655Y-94096462D01*
X175374846Y-93637073D01*
X175624206Y-93036547D01*
X175624774Y-92386306D01*
X175376462Y-91785345D01*
X175354950Y-91763795D01*
X178704716Y-91763795D01*
X178953106Y-92364943D01*
X179412637Y-92825278D01*
X180013352Y-93074716D01*
X180663795Y-93075284D01*
X181264943Y-92826894D01*
X181327197Y-92764749D01*
X181341673Y-92799698D01*
X181520301Y-92978327D01*
X181753690Y-93075000D01*
X182594250Y-93075000D01*
X182753000Y-92916250D01*
X182753000Y-91567000D01*
X183007000Y-91567000D01*
X183007000Y-92916250D01*
X183165750Y-93075000D01*
X184006310Y-93075000D01*
X184239699Y-92978327D01*
X184418327Y-92799698D01*
X184515000Y-92566309D01*
X184515000Y-91763795D01*
X186324716Y-91763795D01*
X186573106Y-92364943D01*
X187032637Y-92825278D01*
X187633352Y-93074716D01*
X188283795Y-93075284D01*
X188884943Y-92826894D01*
X188947197Y-92764749D01*
X188961673Y-92799698D01*
X189140301Y-92978327D01*
X189373690Y-93075000D01*
X190214250Y-93075000D01*
X190373000Y-92916250D01*
X190373000Y-91567000D01*
X190627000Y-91567000D01*
X190627000Y-92916250D01*
X190785750Y-93075000D01*
X191626310Y-93075000D01*
X191859699Y-92978327D01*
X192038327Y-92799698D01*
X192135000Y-92566309D01*
X192135000Y-91725750D01*
X191976250Y-91567000D01*
X190627000Y-91567000D01*
X190373000Y-91567000D01*
X190353000Y-91567000D01*
X190353000Y-91313000D01*
X190373000Y-91313000D01*
X190373000Y-89963750D01*
X190627000Y-89963750D01*
X190627000Y-91313000D01*
X191976250Y-91313000D01*
X192135000Y-91154250D01*
X192135000Y-90313691D01*
X192038327Y-90080302D01*
X191859699Y-89901673D01*
X191626310Y-89805000D01*
X190785750Y-89805000D01*
X190627000Y-89963750D01*
X190373000Y-89963750D01*
X190214250Y-89805000D01*
X189373690Y-89805000D01*
X189140301Y-89901673D01*
X188961673Y-90080302D01*
X188947370Y-90114834D01*
X188887363Y-90054722D01*
X188286648Y-89805284D01*
X187636205Y-89804716D01*
X187035057Y-90053106D01*
X186574722Y-90512637D01*
X186325284Y-91113352D01*
X186324716Y-91763795D01*
X184515000Y-91763795D01*
X184515000Y-91725750D01*
X184356250Y-91567000D01*
X183007000Y-91567000D01*
X182753000Y-91567000D01*
X182733000Y-91567000D01*
X182733000Y-91313000D01*
X182753000Y-91313000D01*
X182753000Y-89963750D01*
X183007000Y-89963750D01*
X183007000Y-91313000D01*
X184356250Y-91313000D01*
X184515000Y-91154250D01*
X184515000Y-90313691D01*
X184418327Y-90080302D01*
X184239699Y-89901673D01*
X184006310Y-89805000D01*
X183165750Y-89805000D01*
X183007000Y-89963750D01*
X182753000Y-89963750D01*
X182594250Y-89805000D01*
X181753690Y-89805000D01*
X181520301Y-89901673D01*
X181341673Y-90080302D01*
X181327370Y-90114834D01*
X181267363Y-90054722D01*
X180666648Y-89805284D01*
X180016205Y-89804716D01*
X179415057Y-90053106D01*
X178954722Y-90512637D01*
X178705284Y-91113352D01*
X178704716Y-91763795D01*
X175354950Y-91763795D01*
X174917073Y-91325154D01*
X174316547Y-91075794D01*
X173666306Y-91075226D01*
X173065345Y-91323538D01*
X172605154Y-91782927D01*
X172355794Y-92383453D01*
X172355226Y-93033694D01*
X165464208Y-93033694D01*
X165464774Y-92386306D01*
X165216462Y-91785345D01*
X164757073Y-91325154D01*
X164156547Y-91075794D01*
X163506306Y-91075226D01*
X162905345Y-91323538D01*
X162445154Y-91782927D01*
X162195794Y-92383453D01*
X162195226Y-93033694D01*
X162218904Y-93091000D01*
X158409713Y-93091000D01*
X158578917Y-93059162D01*
X158795041Y-92920090D01*
X158940031Y-92707890D01*
X158991040Y-92456000D01*
X158991040Y-90424000D01*
X158946762Y-90188683D01*
X158807690Y-89972559D01*
X158595490Y-89827569D01*
X158343600Y-89776560D01*
X156616400Y-89776560D01*
X156381083Y-89820838D01*
X156164959Y-89959910D01*
X156019969Y-90172110D01*
X156000768Y-90266927D01*
X155842036Y-90089268D01*
X155314791Y-89835291D01*
X155299026Y-89832642D01*
X155067000Y-89953783D01*
X155067000Y-91313000D01*
X155087000Y-91313000D01*
X155087000Y-91567000D01*
X155067000Y-91567000D01*
X155067000Y-92926217D01*
X155299026Y-93047358D01*
X155314791Y-93044709D01*
X155842036Y-92790732D01*
X155998907Y-92615155D01*
X156013238Y-92691317D01*
X156152310Y-92907441D01*
X156364510Y-93052431D01*
X156554969Y-93091000D01*
X154038236Y-93091000D01*
X153528556Y-92581320D01*
X153666461Y-92374931D01*
X154037964Y-92790732D01*
X154565209Y-93044709D01*
X154580974Y-93047358D01*
X154813000Y-92926217D01*
X154813000Y-91567000D01*
X154793000Y-91567000D01*
X154793000Y-91313000D01*
X154813000Y-91313000D01*
X154813000Y-89953783D01*
X154580974Y-89832642D01*
X154565209Y-89835291D01*
X154037964Y-90089268D01*
X153666461Y-90505069D01*
X153459670Y-90195585D01*
X152973489Y-89870729D01*
X152400000Y-89756655D01*
X151826511Y-89870729D01*
X151340330Y-90195585D01*
X151130000Y-90510366D01*
X150919670Y-90195585D01*
X150433489Y-89870729D01*
X149860000Y-89756655D01*
X149286511Y-89870729D01*
X148800330Y-90195585D01*
X148475474Y-90681766D01*
X148361400Y-91255255D01*
X148361400Y-91624745D01*
X148475474Y-92198234D01*
X148800330Y-92684415D01*
X148991291Y-92812011D01*
X149038671Y-93050206D01*
X149231382Y-93338618D01*
X153041382Y-97148618D01*
X153329795Y-97341330D01*
X153670000Y-97409000D01*
X162191764Y-97409000D01*
X162257499Y-97474735D01*
X162246107Y-97474725D01*
X161663343Y-97715519D01*
X161289739Y-98088471D01*
X160919003Y-97717086D01*
X160336659Y-97475276D01*
X159706107Y-97474725D01*
X159123343Y-97715519D01*
X158677086Y-98160997D01*
X158435276Y-98743341D01*
X158434725Y-99373893D01*
X158675519Y-99956657D01*
X159120997Y-100402914D01*
X159703341Y-100644724D01*
X160333893Y-100645275D01*
X160916657Y-100404481D01*
X161290261Y-100031529D01*
X161660997Y-100402914D01*
X162243341Y-100644724D01*
X162873893Y-100645275D01*
X163456657Y-100404481D01*
X163830261Y-100031529D01*
X164200997Y-100402914D01*
X164783341Y-100644724D01*
X165413893Y-100645275D01*
X165996657Y-100404481D01*
X166370261Y-100031529D01*
X166740997Y-100402914D01*
X167323341Y-100644724D01*
X167953893Y-100645275D01*
X168536657Y-100404481D01*
X168910261Y-100031529D01*
X169280997Y-100402914D01*
X169863341Y-100644724D01*
X170493893Y-100645275D01*
X171076657Y-100404481D01*
X171450261Y-100031529D01*
X171820997Y-100402914D01*
X172403341Y-100644724D01*
X173033893Y-100645275D01*
X173616657Y-100404481D01*
X173990261Y-100031529D01*
X174360997Y-100402914D01*
X174943341Y-100644724D01*
X174958027Y-100644737D01*
X171081764Y-104521000D01*
X166370000Y-104521000D01*
X166029794Y-104588671D01*
X165741382Y-104781382D01*
X158381764Y-112141000D01*
X153670000Y-112141000D01*
X153329794Y-112208671D01*
X153041382Y-112401382D01*
X145681764Y-119761000D01*
X143510000Y-119761000D01*
X143169794Y-119828671D01*
X142881382Y-120021382D01*
X140341382Y-122561382D01*
X140148671Y-122849794D01*
X140081000Y-123190000D01*
X140081000Y-123787395D01*
X139762273Y-123919090D01*
X139161200Y-124519114D01*
X138835501Y-125303485D01*
X138834760Y-126152789D01*
X138017304Y-126152789D01*
X138032595Y-126113783D01*
X138016367Y-125264634D01*
X137722632Y-124555495D01*
X137403877Y-124395728D01*
X136069605Y-125730000D01*
X135710395Y-125730000D01*
X134376123Y-124395728D01*
X134057368Y-124555495D01*
X133747405Y-125346217D01*
X132945205Y-125346217D01*
X132945240Y-125307211D01*
X132620910Y-124522273D01*
X132315295Y-124216123D01*
X134555728Y-124216123D01*
X135890000Y-125550395D01*
X137224272Y-124216123D01*
X137064505Y-123897368D01*
X136273783Y-123587405D01*
X135424634Y-123603633D01*
X134715495Y-123897368D01*
X134555728Y-124216123D01*
X132315295Y-124216123D01*
X132020886Y-123921200D01*
X131236515Y-123595501D01*
X130387211Y-123594760D01*
X129602273Y-123919090D01*
X129001200Y-124519114D01*
X128675501Y-125303485D01*
X128674760Y-126152789D01*
X127864502Y-126152789D01*
X127865240Y-125307211D01*
X127540910Y-124522273D01*
X126940886Y-123921200D01*
X126156515Y-123595501D01*
X125307211Y-123594760D01*
X124522273Y-123919090D01*
X123921200Y-124519114D01*
X123595501Y-125303485D01*
X123594760Y-126152789D01*
X122784502Y-126152789D01*
X122785240Y-125307211D01*
X122460910Y-124522273D01*
X121860886Y-123921200D01*
X121793000Y-123893011D01*
X121793000Y-116596086D01*
X132016269Y-116596086D01*
X132218854Y-117086380D01*
X132593647Y-117461827D01*
X133083587Y-117665268D01*
X133614086Y-117665731D01*
X134104380Y-117463146D01*
X134479827Y-117088353D01*
X134683268Y-116598413D01*
X134683270Y-116596086D01*
X138366269Y-116596086D01*
X138568854Y-117086380D01*
X138943647Y-117461827D01*
X139433587Y-117665268D01*
X139964086Y-117665731D01*
X140454380Y-117463146D01*
X140754354Y-117163694D01*
X143145226Y-117163694D01*
X143393538Y-117764655D01*
X143852927Y-118224846D01*
X144453453Y-118474206D01*
X145103694Y-118474774D01*
X145704655Y-118226462D01*
X146164846Y-117767073D01*
X146414206Y-117166547D01*
X146414774Y-116516306D01*
X146166462Y-115915345D01*
X145707073Y-115455154D01*
X145106547Y-115205794D01*
X144456306Y-115205226D01*
X143855345Y-115453538D01*
X143395154Y-115912927D01*
X143145794Y-116513453D01*
X143145226Y-117163694D01*
X140754354Y-117163694D01*
X140829827Y-117088353D01*
X141033268Y-116598413D01*
X141033731Y-116067914D01*
X140831146Y-115577620D01*
X140456353Y-115202173D01*
X139966413Y-114998732D01*
X139435914Y-114998269D01*
X138945620Y-115200854D01*
X138570173Y-115575647D01*
X138366732Y-116065587D01*
X138366269Y-116596086D01*
X134683270Y-116596086D01*
X134683731Y-116067914D01*
X134481146Y-115577620D01*
X134106353Y-115202173D01*
X133616413Y-114998732D01*
X133085914Y-114998269D01*
X132595620Y-115200854D01*
X132220173Y-115575647D01*
X132016732Y-116065587D01*
X132016269Y-116596086D01*
X121793000Y-116596086D01*
X121793000Y-114404159D01*
X122022567Y-114747730D01*
X122558190Y-115105622D01*
X123190000Y-115231297D01*
X123821810Y-115105622D01*
X124357433Y-114747730D01*
X124460000Y-114594228D01*
X124562567Y-114747730D01*
X125098190Y-115105622D01*
X125730000Y-115231297D01*
X126361810Y-115105622D01*
X126897433Y-114747730D01*
X127000000Y-114594228D01*
X127102567Y-114747730D01*
X127638190Y-115105622D01*
X128270000Y-115231297D01*
X128901810Y-115105622D01*
X129437433Y-114747730D01*
X129795325Y-114212107D01*
X129921000Y-113580297D01*
X129921000Y-112636236D01*
X130533150Y-112024086D01*
X132016269Y-112024086D01*
X132218854Y-112514380D01*
X132593647Y-112889827D01*
X133083587Y-113093268D01*
X133614086Y-113093731D01*
X134104380Y-112891146D01*
X134479827Y-112516353D01*
X134683268Y-112026413D01*
X134683270Y-112024086D01*
X138366269Y-112024086D01*
X138568854Y-112514380D01*
X138943647Y-112889827D01*
X139433587Y-113093268D01*
X139964086Y-113093731D01*
X140454380Y-112891146D01*
X140829827Y-112516353D01*
X141033268Y-112026413D01*
X141033731Y-111495914D01*
X140831146Y-111005620D01*
X140639555Y-110813694D01*
X143145226Y-110813694D01*
X143393538Y-111414655D01*
X143852927Y-111874846D01*
X144453453Y-112124206D01*
X145103694Y-112124774D01*
X145704655Y-111876462D01*
X146164846Y-111417073D01*
X146414206Y-110816547D01*
X146414208Y-110813694D01*
X153305226Y-110813694D01*
X153553538Y-111414655D01*
X154012927Y-111874846D01*
X154613453Y-112124206D01*
X155263694Y-112124774D01*
X155864655Y-111876462D01*
X156324846Y-111417073D01*
X156574206Y-110816547D01*
X156574774Y-110166306D01*
X156326462Y-109565345D01*
X155867073Y-109105154D01*
X155266547Y-108855794D01*
X154616306Y-108855226D01*
X154015345Y-109103538D01*
X153555154Y-109562927D01*
X153305794Y-110163453D01*
X153305226Y-110813694D01*
X146414208Y-110813694D01*
X146414774Y-110166306D01*
X146166462Y-109565345D01*
X145707073Y-109105154D01*
X145106547Y-108855794D01*
X144456306Y-108855226D01*
X143855345Y-109103538D01*
X143395154Y-109562927D01*
X143145794Y-110163453D01*
X143145226Y-110813694D01*
X140639555Y-110813694D01*
X140456353Y-110630173D01*
X139966413Y-110426732D01*
X139435914Y-110426269D01*
X138945620Y-110628854D01*
X138570173Y-111003647D01*
X138366732Y-111493587D01*
X138366269Y-112024086D01*
X134683270Y-112024086D01*
X134683731Y-111495914D01*
X134481146Y-111005620D01*
X134106353Y-110630173D01*
X133616413Y-110426732D01*
X133085914Y-110426269D01*
X132595620Y-110628854D01*
X132220173Y-111003647D01*
X132016732Y-111493587D01*
X132016269Y-112024086D01*
X130533150Y-112024086D01*
X132448236Y-110109000D01*
X140970000Y-110109000D01*
X141310206Y-110041329D01*
X141598618Y-109848618D01*
X145408618Y-106038618D01*
X145601330Y-105750205D01*
X145669000Y-105410000D01*
X145669000Y-104522944D01*
X146730025Y-104522944D01*
X146762074Y-104654477D01*
X147078764Y-105217630D01*
X147586857Y-105616724D01*
X148209000Y-105791000D01*
X148463000Y-105791000D01*
X148463000Y-104267000D01*
X148717000Y-104267000D01*
X148717000Y-105791000D01*
X148971000Y-105791000D01*
X149593143Y-105616724D01*
X150101236Y-105217630D01*
X150417926Y-104654477D01*
X150449975Y-104522944D01*
X150330836Y-104267000D01*
X148717000Y-104267000D01*
X148463000Y-104267000D01*
X146849164Y-104267000D01*
X146730025Y-104522944D01*
X145669000Y-104522944D01*
X145669000Y-103238236D01*
X146418236Y-102489000D01*
X146945203Y-102489000D01*
X147131246Y-102767433D01*
X147305781Y-102884054D01*
X147078764Y-103062370D01*
X146762074Y-103625523D01*
X146730025Y-103757056D01*
X146849164Y-104013000D01*
X148463000Y-104013000D01*
X148463000Y-103993000D01*
X148717000Y-103993000D01*
X148717000Y-104013000D01*
X150330836Y-104013000D01*
X150449975Y-103757056D01*
X150417926Y-103625523D01*
X150101236Y-103062370D01*
X149874219Y-102884054D01*
X150048754Y-102767433D01*
X150406646Y-102231810D01*
X150532321Y-101600000D01*
X150406646Y-100968190D01*
X150048754Y-100432567D01*
X149895252Y-100330000D01*
X150048754Y-100227433D01*
X150406646Y-99691810D01*
X150532321Y-99060000D01*
X150406646Y-98428190D01*
X150048754Y-97892567D01*
X149513131Y-97534675D01*
X148881321Y-97409000D01*
X148298679Y-97409000D01*
X147666869Y-97534675D01*
X147131246Y-97892567D01*
X146773354Y-98428190D01*
X146647679Y-99060000D01*
X146773354Y-99691810D01*
X147131246Y-100227433D01*
X147284748Y-100330000D01*
X147131246Y-100432567D01*
X146945203Y-100711000D01*
X146418236Y-100711000D01*
X145669000Y-99961764D01*
X145669000Y-92838654D01*
X145704655Y-92823922D01*
X146164846Y-92364533D01*
X146414206Y-91764007D01*
X146414774Y-91113766D01*
X146166462Y-90512805D01*
X145707073Y-90052614D01*
X145106547Y-89803254D01*
X144456306Y-89802686D01*
X143855345Y-90050998D01*
X143395154Y-90510387D01*
X143145794Y-91110913D01*
X143145226Y-91761154D01*
X143393538Y-92362115D01*
X143852927Y-92822306D01*
X143891000Y-92838115D01*
X143891000Y-105041764D01*
X140601764Y-108331000D01*
X134226236Y-108331000D01*
X136518618Y-106038618D01*
X136711329Y-105750206D01*
X136779000Y-105410000D01*
X136779000Y-104969095D01*
X136918764Y-105217630D01*
X137426857Y-105616724D01*
X138049000Y-105791000D01*
X138303000Y-105791000D01*
X138303000Y-104267000D01*
X138557000Y-104267000D01*
X138557000Y-105791000D01*
X138811000Y-105791000D01*
X139433143Y-105616724D01*
X139941236Y-105217630D01*
X140257926Y-104654477D01*
X140289975Y-104522944D01*
X140170836Y-104267000D01*
X138557000Y-104267000D01*
X138303000Y-104267000D01*
X138283000Y-104267000D01*
X138283000Y-104013000D01*
X138303000Y-104013000D01*
X138303000Y-103993000D01*
X138557000Y-103993000D01*
X138557000Y-104013000D01*
X140170836Y-104013000D01*
X140289975Y-103757056D01*
X140257926Y-103625523D01*
X139941236Y-103062370D01*
X139714219Y-102884054D01*
X139888754Y-102767433D01*
X140246646Y-102231810D01*
X140372321Y-101600000D01*
X140246646Y-100968190D01*
X139888754Y-100432567D01*
X139735252Y-100330000D01*
X139888754Y-100227433D01*
X140246646Y-99691810D01*
X140372321Y-99060000D01*
X140246646Y-98428190D01*
X139888754Y-97892567D01*
X139353131Y-97534675D01*
X138721321Y-97409000D01*
X138138679Y-97409000D01*
X137506869Y-97534675D01*
X136971246Y-97892567D01*
X136613354Y-98428190D01*
X136487679Y-99060000D01*
X136613354Y-99691810D01*
X136823396Y-100006160D01*
X132708618Y-95891382D01*
X132584236Y-95766782D01*
X132257609Y-95631154D01*
X132042939Y-95630967D01*
X134589516Y-93084390D01*
X135619490Y-93084390D01*
X135854807Y-93040112D01*
X136070931Y-92901040D01*
X136215921Y-92688840D01*
X136266930Y-92436950D01*
X136266930Y-90437970D01*
X136222652Y-90202653D01*
X136083580Y-89986529D01*
X135871380Y-89841539D01*
X135619490Y-89790530D01*
X133620510Y-89790530D01*
X133385193Y-89834808D01*
X133169069Y-89973880D01*
X133024079Y-90186080D01*
X132973070Y-90437970D01*
X132973070Y-91467944D01*
X127461777Y-96979237D01*
X127214006Y-97350053D01*
X127151288Y-97665358D01*
X126811246Y-97892567D01*
X126794920Y-97917000D01*
X120357640Y-97917000D01*
X120357640Y-97309940D01*
X120313362Y-97074623D01*
X120174290Y-96858499D01*
X119962090Y-96713509D01*
X119710200Y-96662500D01*
X119103140Y-96662500D01*
X119103140Y-93084390D01*
X119109490Y-93084390D01*
X119344807Y-93040112D01*
X119560931Y-92901040D01*
X119705921Y-92688840D01*
X119756930Y-92436950D01*
X119756930Y-91761154D01*
X126635226Y-91761154D01*
X126883538Y-92362115D01*
X127342927Y-92822306D01*
X127943453Y-93071666D01*
X128593694Y-93072234D01*
X129194655Y-92823922D01*
X129654846Y-92364533D01*
X129904206Y-91764007D01*
X129904774Y-91113766D01*
X129656462Y-90512805D01*
X129197073Y-90052614D01*
X128596547Y-89803254D01*
X127946306Y-89802686D01*
X127345345Y-90050998D01*
X126885154Y-90510387D01*
X126635794Y-91110913D01*
X126635226Y-91761154D01*
X119756930Y-91761154D01*
X119756930Y-90437970D01*
X119712652Y-90202653D01*
X119573580Y-89986529D01*
X119361380Y-89841539D01*
X119109490Y-89790530D01*
X117110510Y-89790530D01*
X116875193Y-89834808D01*
X116659069Y-89973880D01*
X116514079Y-90186080D01*
X116463070Y-90437970D01*
X116463070Y-92436950D01*
X116507348Y-92672267D01*
X116646420Y-92888391D01*
X116817140Y-93005039D01*
X116817140Y-96662500D01*
X116210080Y-96662500D01*
X115974763Y-96706778D01*
X115758639Y-96845850D01*
X115613649Y-97058050D01*
X115562640Y-97309940D01*
X115562640Y-100810060D01*
X115606918Y-101045377D01*
X115745990Y-101261501D01*
X115910550Y-101373940D01*
X115246150Y-101373940D01*
X115087400Y-101532690D01*
X115087400Y-103632000D01*
X117186710Y-103632000D01*
X117345460Y-103473250D01*
X117345460Y-101882630D01*
X117248787Y-101649241D01*
X117070158Y-101470613D01*
X117038500Y-101457500D01*
X118891054Y-101457500D01*
X119507000Y-102073446D01*
X119507000Y-117636554D01*
X118906554Y-118237000D01*
X113030000Y-118237000D01*
X112592593Y-118324006D01*
X112221777Y-118571777D01*
X109681777Y-121111777D01*
X109434006Y-121482593D01*
X109347000Y-121920000D01*
X109347000Y-123582690D01*
X108990130Y-123582690D01*
X108754813Y-123626968D01*
X108538689Y-123766040D01*
X108393699Y-123978240D01*
X108342690Y-124230130D01*
X107390000Y-124230130D01*
X107390000Y-112479703D01*
X108839000Y-112479703D01*
X108839000Y-113580297D01*
X108964675Y-114212107D01*
X109322567Y-114747730D01*
X109858190Y-115105622D01*
X110490000Y-115231297D01*
X111121810Y-115105622D01*
X111657433Y-114747730D01*
X111760000Y-114594228D01*
X111862567Y-114747730D01*
X112398190Y-115105622D01*
X113030000Y-115231297D01*
X113661810Y-115105622D01*
X114197433Y-114747730D01*
X114300000Y-114594228D01*
X114402567Y-114747730D01*
X114938190Y-115105622D01*
X115570000Y-115231297D01*
X116201810Y-115105622D01*
X116737433Y-114747730D01*
X117095325Y-114212107D01*
X117221000Y-113580297D01*
X117221000Y-112479703D01*
X117095325Y-111847893D01*
X116737433Y-111312270D01*
X116201810Y-110954378D01*
X115570000Y-110828703D01*
X114938190Y-110954378D01*
X114402567Y-111312270D01*
X114300000Y-111465772D01*
X114197433Y-111312270D01*
X113661810Y-110954378D01*
X113030000Y-110828703D01*
X112398190Y-110954378D01*
X111862567Y-111312270D01*
X111760000Y-111465772D01*
X111657433Y-111312270D01*
X111121810Y-110954378D01*
X110490000Y-110828703D01*
X109858190Y-110954378D01*
X109322567Y-111312270D01*
X108964675Y-111847893D01*
X108839000Y-112479703D01*
X107390000Y-112479703D01*
X107390000Y-104044750D01*
X112575340Y-104044750D01*
X112575340Y-105635370D01*
X112672013Y-105868759D01*
X112850642Y-106047387D01*
X113084031Y-106144060D01*
X114674650Y-106144060D01*
X114833400Y-105985310D01*
X114833400Y-103886000D01*
X115087400Y-103886000D01*
X115087400Y-105985310D01*
X115246150Y-106144060D01*
X116836769Y-106144060D01*
X117070158Y-106047387D01*
X117248787Y-105868759D01*
X117345460Y-105635370D01*
X117345460Y-104044750D01*
X117186710Y-103886000D01*
X115087400Y-103886000D01*
X114833400Y-103886000D01*
X112734090Y-103886000D01*
X112575340Y-104044750D01*
X107390000Y-104044750D01*
X107390000Y-99345750D01*
X109575600Y-99345750D01*
X109575600Y-100936370D01*
X109672273Y-101169759D01*
X109850902Y-101348387D01*
X110084291Y-101445060D01*
X111674910Y-101445060D01*
X111833660Y-101286310D01*
X111833660Y-99187000D01*
X112087660Y-99187000D01*
X112087660Y-101286310D01*
X112246410Y-101445060D01*
X112912332Y-101445060D01*
X112850642Y-101470613D01*
X112672013Y-101649241D01*
X112575340Y-101882630D01*
X112575340Y-103473250D01*
X112734090Y-103632000D01*
X114833400Y-103632000D01*
X114833400Y-101532690D01*
X114674650Y-101373940D01*
X114008728Y-101373940D01*
X114070418Y-101348387D01*
X114249047Y-101169759D01*
X114345720Y-100936370D01*
X114345720Y-99345750D01*
X114186970Y-99187000D01*
X112087660Y-99187000D01*
X111833660Y-99187000D01*
X109734350Y-99187000D01*
X109575600Y-99345750D01*
X107390000Y-99345750D01*
X107390000Y-97183630D01*
X109575600Y-97183630D01*
X109575600Y-98774250D01*
X109734350Y-98933000D01*
X111833660Y-98933000D01*
X111833660Y-96833690D01*
X112087660Y-96833690D01*
X112087660Y-98933000D01*
X114186970Y-98933000D01*
X114345720Y-98774250D01*
X114345720Y-97183630D01*
X114249047Y-96950241D01*
X114070418Y-96771613D01*
X113837029Y-96674940D01*
X112246410Y-96674940D01*
X112087660Y-96833690D01*
X111833660Y-96833690D01*
X111674910Y-96674940D01*
X110084291Y-96674940D01*
X109850902Y-96771613D01*
X109672273Y-96950241D01*
X109575600Y-97183630D01*
X107390000Y-97183630D01*
X107390000Y-89223694D01*
X162195226Y-89223694D01*
X162443538Y-89824655D01*
X162902927Y-90284846D01*
X163503453Y-90534206D01*
X164153694Y-90534774D01*
X164754655Y-90286462D01*
X165214846Y-89827073D01*
X165464206Y-89226547D01*
X165464208Y-89223694D01*
X172355226Y-89223694D01*
X172603538Y-89824655D01*
X173062927Y-90284846D01*
X173663453Y-90534206D01*
X174313694Y-90534774D01*
X174914655Y-90286462D01*
X175374846Y-89827073D01*
X175624206Y-89226547D01*
X175624774Y-88576306D01*
X175376462Y-87975345D01*
X174917073Y-87515154D01*
X174316547Y-87265794D01*
X173666306Y-87265226D01*
X173065345Y-87513538D01*
X172605154Y-87972927D01*
X172355794Y-88573453D01*
X172355226Y-89223694D01*
X165464208Y-89223694D01*
X165464774Y-88576306D01*
X165216462Y-87975345D01*
X164757073Y-87515154D01*
X164156547Y-87265794D01*
X163506306Y-87265226D01*
X162905345Y-87513538D01*
X162445154Y-87972927D01*
X162195794Y-88573453D01*
X162195226Y-89223694D01*
X107390000Y-89223694D01*
X107390000Y-87070000D01*
X194870000Y-87070000D01*
X194870000Y-128830000D01*
G36*
X131190846Y-96696057D02*
X131325903Y-97022920D01*
X131575764Y-97273218D01*
X131576137Y-97273373D01*
X135001000Y-100698236D01*
X135001000Y-105041764D01*
X132981764Y-107061000D01*
X125730000Y-107061000D01*
X125389794Y-107128671D01*
X125101382Y-107321382D01*
X123831645Y-108591119D01*
X123706782Y-108715764D01*
X123571154Y-109042391D01*
X123570846Y-109396057D01*
X123705903Y-109722920D01*
X123955764Y-109973218D01*
X124282391Y-110108846D01*
X124636057Y-110109154D01*
X124962920Y-109974097D01*
X125213218Y-109724236D01*
X125213373Y-109723863D01*
X126098236Y-108839000D01*
X131203764Y-108839000D01*
X129013654Y-111029110D01*
X128901810Y-110954378D01*
X128270000Y-110828703D01*
X127638190Y-110954378D01*
X127102567Y-111312270D01*
X127000000Y-111465772D01*
X126897433Y-111312270D01*
X126361810Y-110954378D01*
X125730000Y-110828703D01*
X125098190Y-110954378D01*
X124562567Y-111312270D01*
X124460000Y-111465772D01*
X124357433Y-111312270D01*
X123821810Y-110954378D01*
X123190000Y-110828703D01*
X122558190Y-110954378D01*
X122022567Y-111312270D01*
X121793000Y-111655841D01*
X121793000Y-104140000D01*
X126327679Y-104140000D01*
X126453354Y-104771810D01*
X126811246Y-105307433D01*
X127346869Y-105665325D01*
X127978679Y-105791000D01*
X128561321Y-105791000D01*
X129193131Y-105665325D01*
X129728754Y-105307433D01*
X130086646Y-104771810D01*
X130212321Y-104140000D01*
X130086646Y-103508190D01*
X129728754Y-102972567D01*
X129554219Y-102855946D01*
X129781236Y-102677630D01*
X130097926Y-102114477D01*
X130129975Y-101982944D01*
X130010836Y-101727000D01*
X128397000Y-101727000D01*
X128397000Y-101747000D01*
X128143000Y-101747000D01*
X128143000Y-101727000D01*
X126529164Y-101727000D01*
X126410025Y-101982944D01*
X126442074Y-102114477D01*
X126758764Y-102677630D01*
X126985781Y-102855946D01*
X126811246Y-102972567D01*
X126453354Y-103508190D01*
X126327679Y-104140000D01*
X121793000Y-104140000D01*
X121793000Y-101600000D01*
X121705994Y-101162593D01*
X121458223Y-100791777D01*
X120869446Y-100203000D01*
X126794920Y-100203000D01*
X126811246Y-100227433D01*
X126985781Y-100344054D01*
X126758764Y-100522370D01*
X126442074Y-101085523D01*
X126410025Y-101217056D01*
X126529164Y-101473000D01*
X128143000Y-101473000D01*
X128143000Y-101453000D01*
X128397000Y-101453000D01*
X128397000Y-101473000D01*
X130010836Y-101473000D01*
X130129975Y-101217056D01*
X130097926Y-101085523D01*
X129781236Y-100522370D01*
X129554219Y-100344054D01*
X129728754Y-100227433D01*
X130086646Y-99691810D01*
X130212321Y-99060000D01*
X130086646Y-98428190D01*
X129749817Y-97924089D01*
X131191032Y-96482874D01*
X131190846Y-96696057D01*
X131190846Y-96696057D01*
G37*
X131190846Y-96696057D02*
X131325903Y-97022920D01*
X131575764Y-97273218D01*
X131576137Y-97273373D01*
X135001000Y-100698236D01*
X135001000Y-105041764D01*
X132981764Y-107061000D01*
X125730000Y-107061000D01*
X125389794Y-107128671D01*
X125101382Y-107321382D01*
X123831645Y-108591119D01*
X123706782Y-108715764D01*
X123571154Y-109042391D01*
X123570846Y-109396057D01*
X123705903Y-109722920D01*
X123955764Y-109973218D01*
X124282391Y-110108846D01*
X124636057Y-110109154D01*
X124962920Y-109974097D01*
X125213218Y-109724236D01*
X125213373Y-109723863D01*
X126098236Y-108839000D01*
X131203764Y-108839000D01*
X129013654Y-111029110D01*
X128901810Y-110954378D01*
X128270000Y-110828703D01*
X127638190Y-110954378D01*
X127102567Y-111312270D01*
X127000000Y-111465772D01*
X126897433Y-111312270D01*
X126361810Y-110954378D01*
X125730000Y-110828703D01*
X125098190Y-110954378D01*
X124562567Y-111312270D01*
X124460000Y-111465772D01*
X124357433Y-111312270D01*
X123821810Y-110954378D01*
X123190000Y-110828703D01*
X122558190Y-110954378D01*
X122022567Y-111312270D01*
X121793000Y-111655841D01*
X121793000Y-104140000D01*
X126327679Y-104140000D01*
X126453354Y-104771810D01*
X126811246Y-105307433D01*
X127346869Y-105665325D01*
X127978679Y-105791000D01*
X128561321Y-105791000D01*
X129193131Y-105665325D01*
X129728754Y-105307433D01*
X130086646Y-104771810D01*
X130212321Y-104140000D01*
X130086646Y-103508190D01*
X129728754Y-102972567D01*
X129554219Y-102855946D01*
X129781236Y-102677630D01*
X130097926Y-102114477D01*
X130129975Y-101982944D01*
X130010836Y-101727000D01*
X128397000Y-101727000D01*
X128397000Y-101747000D01*
X128143000Y-101747000D01*
X128143000Y-101727000D01*
X126529164Y-101727000D01*
X126410025Y-101982944D01*
X126442074Y-102114477D01*
X126758764Y-102677630D01*
X126985781Y-102855946D01*
X126811246Y-102972567D01*
X126453354Y-103508190D01*
X126327679Y-104140000D01*
X121793000Y-104140000D01*
X121793000Y-101600000D01*
X121705994Y-101162593D01*
X121458223Y-100791777D01*
X120869446Y-100203000D01*
X126794920Y-100203000D01*
X126811246Y-100227433D01*
X126985781Y-100344054D01*
X126758764Y-100522370D01*
X126442074Y-101085523D01*
X126410025Y-101217056D01*
X126529164Y-101473000D01*
X128143000Y-101473000D01*
X128143000Y-101453000D01*
X128397000Y-101453000D01*
X128397000Y-101473000D01*
X130010836Y-101473000D01*
X130129975Y-101217056D01*
X130097926Y-101085523D01*
X129781236Y-100522370D01*
X129554219Y-100344054D01*
X129728754Y-100227433D01*
X130086646Y-99691810D01*
X130212321Y-99060000D01*
X130086646Y-98428190D01*
X129749817Y-97924089D01*
X131191032Y-96482874D01*
X131190846Y-96696057D01*
M02*
