G04 #@! TF.FileFunction,Legend,Top*
%FSLAX46Y46*%
G04 Gerber Fmt 4.6, Leading zero omitted, Abs format (unit mm)*
G04 Created by KiCad (PCBNEW 0.201509111501+6183~30~ubuntu14.04.1-product) date Mon 14 Sep 2015 02:56:09 PM CDT*
%MOMM*%
G01*
G04 APERTURE LIST*
%ADD10C,0.100000*%
%ADD11C,0.150000*%
G04 APERTURE END LIST*
D10*
D11*
X154940000Y-139700000D02*
X129540000Y-139700000D01*
X129540000Y-139700000D02*
X129540000Y-137160000D01*
X129540000Y-137160000D02*
X154940000Y-137160000D01*
X157760000Y-139980000D02*
X156210000Y-139980000D01*
X154940000Y-139700000D02*
X154940000Y-137160000D01*
X156210000Y-136880000D02*
X157760000Y-136880000D01*
X157760000Y-136880000D02*
X157760000Y-139980000D01*
X122760000Y-128700000D02*
X126160000Y-128700000D01*
X122762944Y-128697056D02*
G75*
G02X124460000Y-124600000I1697056J1697056D01*
G01*
X126157056Y-128697056D02*
G75*
G03X124460000Y-124600000I-1697056J1697056D01*
G01*
X160860000Y-128700000D02*
X164260000Y-128700000D01*
X160862944Y-128697056D02*
G75*
G02X162560000Y-124600000I1697056J1697056D01*
G01*
X164257056Y-128697056D02*
G75*
G03X162560000Y-124600000I-1697056J1697056D01*
G01*
X153240000Y-128700000D02*
X156640000Y-128700000D01*
X153242944Y-128697056D02*
G75*
G02X154940000Y-124600000I1697056J1697056D01*
G01*
X156637056Y-128697056D02*
G75*
G03X154940000Y-124600000I-1697056J1697056D01*
G01*
X145620000Y-128700000D02*
X149020000Y-128700000D01*
X145622944Y-128697056D02*
G75*
G02X147320000Y-124600000I1697056J1697056D01*
G01*
X149017056Y-128697056D02*
G75*
G03X147320000Y-124600000I-1697056J1697056D01*
G01*
X138000000Y-128700000D02*
X141400000Y-128700000D01*
X138002944Y-128697056D02*
G75*
G02X139700000Y-124600000I1697056J1697056D01*
G01*
X141397056Y-128697056D02*
G75*
G03X139700000Y-124600000I-1697056J1697056D01*
G01*
X130380000Y-128700000D02*
X133780000Y-128700000D01*
X130382944Y-128697056D02*
G75*
G02X132080000Y-124600000I1697056J1697056D01*
G01*
X133777056Y-128697056D02*
G75*
G03X132080000Y-124600000I-1697056J1697056D01*
G01*
X161762381Y-139168095D02*
X160762381Y-139168095D01*
X160762381Y-138787142D01*
X160810000Y-138691904D01*
X160857619Y-138644285D01*
X160952857Y-138596666D01*
X161095714Y-138596666D01*
X161190952Y-138644285D01*
X161238571Y-138691904D01*
X161286190Y-138787142D01*
X161286190Y-139168095D01*
X161762381Y-137644285D02*
X161762381Y-138215714D01*
X161762381Y-137930000D02*
X160762381Y-137930000D01*
X160905238Y-138025238D01*
X161000476Y-138120476D01*
X161048095Y-138215714D01*
X123094762Y-123547619D02*
X122999524Y-123500000D01*
X122904286Y-123404762D01*
X122761429Y-123261905D01*
X122666190Y-123214286D01*
X122570952Y-123214286D01*
X122618571Y-123452381D02*
X122523333Y-123404762D01*
X122428095Y-123309524D01*
X122380476Y-123119048D01*
X122380476Y-122785714D01*
X122428095Y-122595238D01*
X122523333Y-122500000D01*
X122618571Y-122452381D01*
X122809048Y-122452381D01*
X122904286Y-122500000D01*
X122999524Y-122595238D01*
X123047143Y-122785714D01*
X123047143Y-123119048D01*
X122999524Y-123309524D01*
X122904286Y-123404762D01*
X122809048Y-123452381D01*
X122618571Y-123452381D01*
X123999524Y-123452381D02*
X123428095Y-123452381D01*
X123713809Y-123452381D02*
X123713809Y-122452381D01*
X123618571Y-122595238D01*
X123523333Y-122690476D01*
X123428095Y-122738095D01*
X161194762Y-123547619D02*
X161099524Y-123500000D01*
X161004286Y-123404762D01*
X160861429Y-123261905D01*
X160766190Y-123214286D01*
X160670952Y-123214286D01*
X160718571Y-123452381D02*
X160623333Y-123404762D01*
X160528095Y-123309524D01*
X160480476Y-123119048D01*
X160480476Y-122785714D01*
X160528095Y-122595238D01*
X160623333Y-122500000D01*
X160718571Y-122452381D01*
X160909048Y-122452381D01*
X161004286Y-122500000D01*
X161099524Y-122595238D01*
X161147143Y-122785714D01*
X161147143Y-123119048D01*
X161099524Y-123309524D01*
X161004286Y-123404762D01*
X160909048Y-123452381D01*
X160718571Y-123452381D01*
X162004286Y-122452381D02*
X161813809Y-122452381D01*
X161718571Y-122500000D01*
X161670952Y-122547619D01*
X161575714Y-122690476D01*
X161528095Y-122880952D01*
X161528095Y-123261905D01*
X161575714Y-123357143D01*
X161623333Y-123404762D01*
X161718571Y-123452381D01*
X161909048Y-123452381D01*
X162004286Y-123404762D01*
X162051905Y-123357143D01*
X162099524Y-123261905D01*
X162099524Y-123023810D01*
X162051905Y-122928571D01*
X162004286Y-122880952D01*
X161909048Y-122833333D01*
X161718571Y-122833333D01*
X161623333Y-122880952D01*
X161575714Y-122928571D01*
X161528095Y-123023810D01*
X153574762Y-123547619D02*
X153479524Y-123500000D01*
X153384286Y-123404762D01*
X153241429Y-123261905D01*
X153146190Y-123214286D01*
X153050952Y-123214286D01*
X153098571Y-123452381D02*
X153003333Y-123404762D01*
X152908095Y-123309524D01*
X152860476Y-123119048D01*
X152860476Y-122785714D01*
X152908095Y-122595238D01*
X153003333Y-122500000D01*
X153098571Y-122452381D01*
X153289048Y-122452381D01*
X153384286Y-122500000D01*
X153479524Y-122595238D01*
X153527143Y-122785714D01*
X153527143Y-123119048D01*
X153479524Y-123309524D01*
X153384286Y-123404762D01*
X153289048Y-123452381D01*
X153098571Y-123452381D01*
X154431905Y-122452381D02*
X153955714Y-122452381D01*
X153908095Y-122928571D01*
X153955714Y-122880952D01*
X154050952Y-122833333D01*
X154289048Y-122833333D01*
X154384286Y-122880952D01*
X154431905Y-122928571D01*
X154479524Y-123023810D01*
X154479524Y-123261905D01*
X154431905Y-123357143D01*
X154384286Y-123404762D01*
X154289048Y-123452381D01*
X154050952Y-123452381D01*
X153955714Y-123404762D01*
X153908095Y-123357143D01*
X145954762Y-123547619D02*
X145859524Y-123500000D01*
X145764286Y-123404762D01*
X145621429Y-123261905D01*
X145526190Y-123214286D01*
X145430952Y-123214286D01*
X145478571Y-123452381D02*
X145383333Y-123404762D01*
X145288095Y-123309524D01*
X145240476Y-123119048D01*
X145240476Y-122785714D01*
X145288095Y-122595238D01*
X145383333Y-122500000D01*
X145478571Y-122452381D01*
X145669048Y-122452381D01*
X145764286Y-122500000D01*
X145859524Y-122595238D01*
X145907143Y-122785714D01*
X145907143Y-123119048D01*
X145859524Y-123309524D01*
X145764286Y-123404762D01*
X145669048Y-123452381D01*
X145478571Y-123452381D01*
X146764286Y-122785714D02*
X146764286Y-123452381D01*
X146526190Y-122404762D02*
X146288095Y-123119048D01*
X146907143Y-123119048D01*
X138334762Y-123547619D02*
X138239524Y-123500000D01*
X138144286Y-123404762D01*
X138001429Y-123261905D01*
X137906190Y-123214286D01*
X137810952Y-123214286D01*
X137858571Y-123452381D02*
X137763333Y-123404762D01*
X137668095Y-123309524D01*
X137620476Y-123119048D01*
X137620476Y-122785714D01*
X137668095Y-122595238D01*
X137763333Y-122500000D01*
X137858571Y-122452381D01*
X138049048Y-122452381D01*
X138144286Y-122500000D01*
X138239524Y-122595238D01*
X138287143Y-122785714D01*
X138287143Y-123119048D01*
X138239524Y-123309524D01*
X138144286Y-123404762D01*
X138049048Y-123452381D01*
X137858571Y-123452381D01*
X138620476Y-122452381D02*
X139239524Y-122452381D01*
X138906190Y-122833333D01*
X139049048Y-122833333D01*
X139144286Y-122880952D01*
X139191905Y-122928571D01*
X139239524Y-123023810D01*
X139239524Y-123261905D01*
X139191905Y-123357143D01*
X139144286Y-123404762D01*
X139049048Y-123452381D01*
X138763333Y-123452381D01*
X138668095Y-123404762D01*
X138620476Y-123357143D01*
X130714762Y-123547619D02*
X130619524Y-123500000D01*
X130524286Y-123404762D01*
X130381429Y-123261905D01*
X130286190Y-123214286D01*
X130190952Y-123214286D01*
X130238571Y-123452381D02*
X130143333Y-123404762D01*
X130048095Y-123309524D01*
X130000476Y-123119048D01*
X130000476Y-122785714D01*
X130048095Y-122595238D01*
X130143333Y-122500000D01*
X130238571Y-122452381D01*
X130429048Y-122452381D01*
X130524286Y-122500000D01*
X130619524Y-122595238D01*
X130667143Y-122785714D01*
X130667143Y-123119048D01*
X130619524Y-123309524D01*
X130524286Y-123404762D01*
X130429048Y-123452381D01*
X130238571Y-123452381D01*
X131048095Y-122547619D02*
X131095714Y-122500000D01*
X131190952Y-122452381D01*
X131429048Y-122452381D01*
X131524286Y-122500000D01*
X131571905Y-122547619D01*
X131619524Y-122642857D01*
X131619524Y-122738095D01*
X131571905Y-122880952D01*
X131000476Y-123452381D01*
X131619524Y-123452381D01*
M02*
