G04 #@! TF.FileFunction,Copper,L1,Top,Signal*
%FSLAX46Y46*%
G04 Gerber Fmt 4.6, Leading zero omitted, Abs format (unit mm)*
G04 Created by KiCad (PCBNEW 0.201509111501+6183~30~ubuntu14.04.1-product) date Mon 14 Sep 2015 02:56:09 PM CDT*
%MOMM*%
G01*
G04 APERTURE LIST*
%ADD10C,0.100000*%
%ADD11R,1.727200X2.032000*%
%ADD12O,1.727200X2.032000*%
%ADD13O,0.899160X1.501140*%
%ADD14C,0.508000*%
G04 APERTURE END LIST*
D10*
D11*
X156210000Y-138430000D03*
D12*
X153670000Y-138430000D03*
X151130000Y-138430000D03*
X148590000Y-138430000D03*
X146050000Y-138430000D03*
X143510000Y-138430000D03*
X140970000Y-138430000D03*
X138430000Y-138430000D03*
X135890000Y-138430000D03*
X133350000Y-138430000D03*
X130810000Y-138430000D03*
D13*
X124460000Y-127000000D03*
X125730000Y-127000000D03*
X123190000Y-127000000D03*
X162560000Y-127000000D03*
X163830000Y-127000000D03*
X161290000Y-127000000D03*
X154940000Y-127000000D03*
X156210000Y-127000000D03*
X153670000Y-127000000D03*
X147320000Y-127000000D03*
X148590000Y-127000000D03*
X146050000Y-127000000D03*
X139700000Y-127000000D03*
X140970000Y-127000000D03*
X138430000Y-127000000D03*
X132080000Y-127000000D03*
X133350000Y-127000000D03*
X130810000Y-127000000D03*
D14*
X161290000Y-125730000D02*
X163830000Y-123190000D01*
X156210000Y-135890000D02*
X156210000Y-138430000D01*
X158750000Y-133350000D02*
X156210000Y-135890000D01*
X162560000Y-133350000D02*
X158750000Y-133350000D01*
X166370000Y-129540000D02*
X162560000Y-133350000D01*
X166370000Y-124460000D02*
X166370000Y-129540000D01*
X165100000Y-123190000D02*
X166370000Y-124460000D01*
X163830000Y-123190000D02*
X165100000Y-123190000D01*
X146050000Y-125730000D02*
X148590000Y-123190000D01*
X161290000Y-125730000D02*
X161290000Y-127000000D01*
X158750000Y-123190000D02*
X161290000Y-125730000D01*
X148590000Y-123190000D02*
X158750000Y-123190000D01*
X130810000Y-127000000D02*
X130810000Y-124460000D01*
X146050000Y-125730000D02*
X146050000Y-127000000D01*
X143510000Y-123190000D02*
X146050000Y-125730000D01*
X132080000Y-123190000D02*
X143510000Y-123190000D01*
X130810000Y-124460000D02*
X132080000Y-123190000D01*
X151130000Y-138430000D02*
X151130000Y-135890000D01*
X163830000Y-129540000D02*
X163830000Y-127000000D01*
X162560000Y-130810000D02*
X163830000Y-129540000D01*
X156210000Y-130810000D02*
X162560000Y-130810000D01*
X151130000Y-135890000D02*
X156210000Y-130810000D01*
X146050000Y-138430000D02*
X146050000Y-134620000D01*
X151130000Y-133350000D02*
X154940000Y-129540000D01*
X147320000Y-133350000D02*
X151130000Y-133350000D01*
X146050000Y-134620000D02*
X147320000Y-133350000D01*
X154940000Y-129540000D02*
X161290000Y-129540000D01*
X162560000Y-128270000D02*
X162560000Y-127000000D01*
X161290000Y-129540000D02*
X162560000Y-128270000D01*
X154940000Y-129540000D02*
X154940000Y-127000000D01*
X143510000Y-138430000D02*
X143510000Y-133350000D01*
X148590000Y-130810000D02*
X148590000Y-127000000D01*
X147320000Y-132080000D02*
X148590000Y-130810000D01*
X144780000Y-132080000D02*
X147320000Y-132080000D01*
X143510000Y-133350000D02*
X144780000Y-132080000D01*
X139700000Y-130810000D02*
X146050000Y-130810000D01*
X147320000Y-129540000D02*
X147320000Y-127000000D01*
X146050000Y-130810000D02*
X147320000Y-129540000D01*
X138430000Y-138430000D02*
X138430000Y-132080000D01*
X139700000Y-130810000D02*
X139700000Y-127000000D01*
X138430000Y-132080000D02*
X139700000Y-130810000D01*
X135890000Y-138430000D02*
X135890000Y-133350000D01*
X133350000Y-130810000D02*
X133350000Y-127000000D01*
X135890000Y-133350000D02*
X133350000Y-130810000D01*
X130810000Y-132080000D02*
X127000000Y-132080000D01*
X124460000Y-129540000D02*
X124460000Y-127000000D01*
X127000000Y-132080000D02*
X124460000Y-129540000D01*
X130810000Y-138430000D02*
X130810000Y-132080000D01*
X132080000Y-130810000D02*
X132080000Y-127000000D01*
X130810000Y-132080000D02*
X132080000Y-130810000D01*
M02*
