M48
;DRILL file {KiCad 0.201509111501+6183~30~ubuntu14.04.1-product} date Mon 14 Sep 2015 02:56:35 PM CDT
;FORMAT={-:-/ absolute / inch / decimal}
FMAT,2
INCH,TZ
T1C0.024
T2C0.040
%
G90
G05
M72
T1
X4.85Y-5.
X4.9Y-5.
X4.95Y-5.
X5.15Y-5.
X5.2Y-5.
X5.25Y-5.
X5.45Y-5.
X5.5Y-5.
X5.55Y-5.
X5.75Y-5.
X5.8Y-5.
X5.85Y-5.
X6.05Y-5.
X6.1Y-5.
X6.15Y-5.
X6.35Y-5.
X6.4Y-5.
X6.45Y-5.
T2
X5.15Y-5.45
X5.25Y-5.45
X5.35Y-5.45
X5.45Y-5.45
X5.55Y-5.45
X5.65Y-5.45
X5.75Y-5.45
X5.85Y-5.45
X5.95Y-5.45
X6.05Y-5.45
X6.15Y-5.45
T0
M30
