M48
;DRILL file {KiCad 0.201509221857+6208~30~ubuntu14.04.1-product} date Fri 23 Oct 2015 02:52:30 PM CDT
;FORMAT={-:-/ absolute / inch / decimal}
FMAT,2
INCH,TZ
T1C0.016
T2C0.016
T3C0.024
T4C0.031
T5C0.039
T6C0.040
T7C0.045
T8C0.049
T9C0.050
T10C0.126
%
G90
G05
M72
T1
X5.35Y-4.55
X5.35Y-4.7
X5.6Y-4.7
X5.7Y-4.2
X6.85Y-4.55
X6.85Y-4.85
X6.95Y-3.5
X7.4Y-4.65
T2
X5.5Y-4.7
T3
X5.35Y-3.45
X5.4Y-3.45
X5.45Y-3.45
T4
X6.8Y-3.7
X6.8Y-4.3
X6.9Y-3.7
X6.9Y-4.3
X7.Y-3.7
X7.Y-4.3
X7.1Y-3.7
X7.1Y-4.3
X7.2Y-3.7
X7.2Y-4.3
X7.3Y-3.7
X7.3Y-4.3
X7.4Y-3.7
X7.4Y-4.3
X7.5Y-3.7
X7.5Y-4.3
X7.6Y-3.7
X7.6Y-4.3
X7.7Y-3.7
X7.7Y-4.3
X7.8Y-3.7
X7.8Y-4.3
X7.9Y-3.7
X7.9Y-4.3
X8.Y-3.7
X8.Y-4.3
X8.1Y-3.7
X8.1Y-4.3
T5
X4.85Y-3.7499
X4.85Y-4.5499
X4.95Y-3.05
X5.05Y-3.05
X5.8Y-3.4
X5.8Y-3.8
X5.8Y-4.2
X5.8Y-4.6
X6.05Y-3.05
X6.05Y-3.4
X6.05Y-3.8
X6.05Y-4.2
X6.05Y-4.6
X6.15Y-3.05
X6.3Y-3.4
X6.3Y-3.8
X6.3Y-4.2
X6.3Y-4.6
X6.55Y-3.4
X6.55Y-3.8
X6.55Y-4.2
X6.55Y-4.6
X7.15Y-3.05
X7.25Y-3.05
T6
X7.6Y-4.55
X7.7Y-4.55
X7.8Y-4.55
X7.9Y-4.55
T7
X5.15Y-4.05
X5.15Y-4.15
X5.15Y-4.25
X5.5Y-4.05
X5.5Y-4.15
X5.5Y-4.25
T8
X4.6Y-5.05
X4.8Y-5.05
X5.Y-5.05
X5.2Y-5.05
X5.4Y-5.05
X5.6Y-5.05
X5.8Y-5.05
X6.Y-5.05
X6.2Y-5.05
X6.4Y-5.05
X6.6Y-5.05
X6.8Y-5.05
X7.Y-5.05
X7.2Y-5.05
X7.4Y-5.05
X7.6Y-5.05
X7.8Y-5.05
T9
X5.25Y-3.7499
X5.25Y-4.5499
T10
X4.95Y-3.4
X5.75Y-4.
X7.35Y-3.4
T6
X4.4079Y-4.2109G85X4.4079Y-4.289
G05
X4.487Y-4.435G85X4.5651Y-4.435
G05
X4.6441Y-4.2109G85X4.6441Y-4.289
G05
T0
M30
